<svg xmlns="http://www.w3.org/2000/svg" enable-background="new 0 0 1000 1000" viewBox="0 0 1000 1000"><rect width="1000" height="1000" fill="#ffb600"/><g opacity=".3"><rect width="42" height="246.5" x="430.341" y="388.822" fill="#2d2d2d" stroke="#2d2d2d" stroke-linecap="round" stroke-linejoin="round" stroke-miterlimit="10" stroke-width="8"/><rect width="53.333" height="30" x="424.675" y="635.161" fill="#2d2d2d" stroke="#2d2d2d" stroke-linecap="round" stroke-linejoin="round" stroke-miterlimit="10" stroke-width="8"/><path fill="#2d2d2d" stroke="#2d2d2d" stroke-linecap="round" stroke-linejoin="round" stroke-miterlimit="10" stroke-width="8" d="
			M463.671,691h-24.658c-4.789,0-8.671-3.882-8.671-8.671v-17.168h42v17.168C472.341,687.118,468.459,691,463.671,691z"/><polygon fill="#2d2d2d" stroke="#2d2d2d" stroke-linecap="round" stroke-linejoin="round" stroke-miterlimit="10" stroke-width="8" points="472.341 388.822 430.341 388.822 451.341 322.333"/></g><g opacity=".3"><rect width="37.333" height="212" x="564.893" y="482.499" fill="#2d2d2d" stroke="#2d2d2d" stroke-linecap="round" stroke-linejoin="round" stroke-miterlimit="10" stroke-width="8"/><rect width="48" height="143" x="559.56" y="339.499" fill="#2d2d2d" stroke="#2d2d2d" stroke-linecap="round" stroke-linejoin="round" stroke-miterlimit="10" stroke-width="8"/><path fill="#2d2d2d" stroke="#2d2d2d" stroke-linecap="round" stroke-linejoin="round" stroke-miterlimit="10" stroke-width="8" d="
			M602.226,339.499h-37.333v-2.335c0-10.309,8.357-18.667,18.667-18.667h0c10.309,0,18.667,8.357,18.667,18.667V339.499z"/><line x1="545.712" x2="545.712" y1="361.871" y2="451.196" fill="#2d2d2d" stroke="#2d2d2d" stroke-linecap="round" stroke-linejoin="round" stroke-miterlimit="10" stroke-width="8"/><line x1="559.557" x2="545.712" y1="376.332" y2="376.332" fill="#2d2d2d" stroke="#2d2d2d" stroke-linecap="round" stroke-linejoin="round" stroke-miterlimit="10" stroke-width="8"/><path fill="#2d2d2d" stroke="#2d2d2d" stroke-linecap="round" stroke-linejoin="round" stroke-miterlimit="10" stroke-width="8" d="
			M597.81,694.499c0,7.87-6.38,14.25-14.25,14.25s-14.25-6.38-14.25-14.25H597.81z"/></g><rect width="37.333" height="212" x="555.893" y="472.499" fill="#00b3c6"/><rect width="13.56" height="212" x="579.667" y="472.499" fill="#00b3c6" opacity=".5"/><rect width="13.416" height="212" x="555.893" y="472.499" fill="#00b3c6" opacity=".35"/><rect width="37.333" height="212" x="555.893" y="472.499" fill="none" stroke="#330e00" stroke-linecap="round" stroke-linejoin="round" stroke-miterlimit="10" stroke-width="8"/><rect width="48" height="143" x="550.56" y="329.499" fill="#565656"/><rect width="14.333" height="143" x="550.56" y="329.499" fill="#565656" opacity=".27"/><rect width="14.333" height="143" x="583.56" y="329.499" fill="#565656" opacity=".27"/><rect width="48" height="143" x="550.56" y="329.499" fill="none" stroke="#330e00" stroke-linecap="round" stroke-linejoin="round" stroke-miterlimit="10" stroke-width="8"/><path fill="#00b3c6" d="M593.226,329.499h-37.333v-2.335c0-10.309,8.357-18.667,18.667-18.667h0
			c10.309,0,18.667,8.357,18.667,18.667V329.499z"/><path fill="none" stroke="#330e00" stroke-linecap="round" stroke-linejoin="round" stroke-miterlimit="10" stroke-width="8" d="
			M593.226,329.499h-37.333v-2.335c0-10.309,8.357-18.667,18.667-18.667h0c10.309,0,18.667,8.357,18.667,18.667V329.499z"/><line x1="536.712" x2="536.712" y1="351.871" y2="441.196" fill="none" stroke="#330e00" stroke-linecap="round" stroke-linejoin="round" stroke-miterlimit="10" stroke-width="8"/><line x1="550.557" x2="536.712" y1="366.332" y2="366.332" fill="none" stroke="#330e00" stroke-linecap="round" stroke-linejoin="round" stroke-miterlimit="10" stroke-width="8"/><path fill="#565656" d="M588.81,684.499c0,7.87-6.38,14.25-14.25,14.25s-14.25-6.38-14.25-14.25H588.81z"/><path fill="none" stroke="#330e00" stroke-linecap="round" stroke-linejoin="round" stroke-miterlimit="10" stroke-width="8" d="
			M588.81,684.499c0,7.87-6.38,14.25-14.25,14.25s-14.25-6.38-14.25-14.25H588.81z"/><g><rect width="42" height="246.5" x="419.341" y="376.822" fill="#ff1f1f"/><rect width="42" height="246.5" x="419.341" y="376.822" fill="none" stroke="#330e00" stroke-linecap="round" stroke-linejoin="round" stroke-miterlimit="10" stroke-width="8"/><rect width="14.642" height="246.5" x="433.02" y="376.822" fill="none" stroke="#330e00" stroke-linecap="round" stroke-linejoin="round" stroke-miterlimit="10" stroke-width="8"/><rect width="53.333" height="30" x="413.675" y="623.161" fill="#fdd2a7"/><rect width="15.667" height="30" x="451.341" y="623.161" fill="#fdd2a7" opacity=".5"/><rect width="14.325" height="30" x="413.675" y="623.161" fill="#fdd2a7"/><rect width="53.333" height="30" x="413.675" y="623.161" fill="none" stroke="#330e00" stroke-linecap="round" stroke-linejoin="round" stroke-miterlimit="10" stroke-width="8"/><path fill="#3babff" d="M452.671,679h-24.658c-4.789,0-8.671-3.882-8.671-8.671v-17.168h42v17.168
			C461.341,675.118,457.459,679,452.671,679z"/><path fill="none" stroke="#330e00" stroke-linecap="round" stroke-linejoin="round" stroke-miterlimit="10" stroke-width="8" d="
			M452.671,679h-24.658c-4.789,0-8.671-3.882-8.671-8.671v-17.168h42v17.168C461.341,675.118,457.459,679,452.671,679z"/><polygon fill="#fdd2a7" points="461.341 376.822 419.341 376.822 440.341 310.333"/><polygon fill="none" stroke="#330e00" stroke-linecap="round" stroke-linejoin="round" stroke-miterlimit="10" stroke-width="8" points="461.341 376.822 419.341 376.822 440.341 310.333"/><polygon fill="#330e00" points="440.341 310.333 431.445 338.499 449.237 338.499"/></g><g><path fill="#2d2d2d" stroke="#2d2d2d" stroke-linecap="round" stroke-linejoin="round" stroke-miterlimit="10" stroke-width="8" d="
			M189.652,520.991c-14.765-20.86-38.302-29.581-52.573-19.48s-13.87,35.199,0.894,56.059
			c12.897,18.221,32.486,27.178,46.747,22.421l61.507,98.116c5.242,8.213,13.391,9.47,19.493,5.15
			c6.102-4.319,7.627-12.423,1.623-20.097l-72.087-90.627C204.483,560.665,202.548,539.212,189.652,520.991z" opacity=".3"/><circle cx="245.932" cy="498.315" r="126" fill="#2d2d2d" stroke="#2d2d2d" stroke-linecap="round" stroke-linejoin="round" stroke-miterlimit="10" stroke-width="8" opacity=".3"/><circle cx="233.932" cy="486.315" r="126" fill="#fff"/><path fill="silver" stroke="silver" stroke-linecap="round" stroke-linejoin="round" stroke-miterlimit="10" stroke-width="8" d="M182.256 550.534c9.227-11.869 7.292-33.322-5.605-51.542-14.765-20.859-66.443 15.719-51.679 36.579 12.897 18.221 32.486 27.178 46.747 22.421l29.822 47.573c9.011 2.551 18.433 4.123 28.143 4.597L182.256 550.534zM348.2 515.315h-31.984v-32H348.2c4.427 0 8.016 3.589 8.016 8.016V507.3C356.216 511.727 352.627 515.315 348.2 515.315z"/><circle cx="236.932" cy="499.315" r="79" fill="silver" stroke="silver" stroke-linecap="round" stroke-linejoin="round" stroke-miterlimit="10" stroke-width="8"/><circle cx="233.932" cy="486.315" r="126" fill="none" stroke="#330e00" stroke-linecap="round" stroke-linejoin="round" stroke-miterlimit="10" stroke-width="8"/><path fill="#fff" d="M173.652,508.991c-14.765-20.86-38.302-29.581-52.573-19.48
				s-13.87,35.199,0.894,56.059c12.897,18.221,32.486,27.178,46.747,22.421l61.507,98.116c5.242,8.213,13.391,9.47,19.493,5.15
				s7.627-12.423,1.623-20.097l-72.087-90.627C188.483,548.665,186.548,527.212,173.652,508.991z"/><path fill="silver" stroke="silver" stroke-linecap="round" stroke-linejoin="round" stroke-miterlimit="10" stroke-width="8" d="
				M180.386,556.673c2.934-12.964-3.055-28.596-12.228-43.793c-5.357-8.875-10.092-16.036-17.287-21.094
				C150.873,517.68,162.776,540.262,180.386,556.673z"/><path fill="none" stroke="#330e00" stroke-linecap="round" stroke-linejoin="round" stroke-miterlimit="10" stroke-width="4" d="
				M136.07,545.599c-1.582-1.716-3.086-3.567-4.482-5.54c-6.56-9.268-9.795-19.886-9.439-28.424"/><path fill="none" stroke="#330e00" stroke-linecap="round" stroke-linejoin="round" stroke-miterlimit="10" stroke-width="8" d="
				M173.652,508.991c-14.765-20.86-38.302-29.581-52.573-19.48s-13.87,35.199,0.894,56.059
				c12.897,18.221,32.486,27.178,46.747,22.421l61.507,98.116c5.242,8.213,13.391,9.47,19.493,5.15s7.627-12.423,1.623-20.097
				l-72.087-90.627C188.483,548.665,186.548,527.212,173.652,508.991z"/><path fill="#fff" d="M345.2,502.315h-38.57v-32h38.57c4.427,0,8.016,3.589,8.016,8.016V494.3
			C353.216,498.727,349.627,502.315,345.2,502.315z"/><path fill="none" stroke="#330e00" stroke-linecap="round" stroke-linejoin="round" stroke-miterlimit="10" stroke-width="8" d="
			M345.2,502.315h-38.57v-32h38.57c4.427,0,8.016,3.589,8.016,8.016V494.3C353.216,498.727,349.627,502.315,345.2,502.315z"/><circle cx="233.932" cy="486.315" r="79" fill="#fff"/><circle cx="233.932" cy="486.315" r="79" fill="none" stroke="#330e00" stroke-linecap="round" stroke-linejoin="round" stroke-miterlimit="10" stroke-width="8"/><circle cx="233.932" cy="486.315" r="63.315" fill="#330e00"/><path fill="none" stroke="#fff" stroke-linecap="round" stroke-miterlimit="10" stroke-width="5" d="M240.342 436.363c25.366 3.099 45.078 24.772 45.078 50.962 0 28.31-23.032 51.342-51.342 51.342-19.795 0-37.009-11.261-45.574-27.712M236.629 449.986c15.411 3.162 27.858 14.555 32.526 29.366"/></g><line x1="569.667" x2="569.667" y1="585.499" y2="666.333" fill="none" stroke="#330e00" stroke-linecap="round" stroke-linejoin="round" stroke-miterlimit="10" stroke-width="6"/><g><rect width="37.333" height="212" x="555.893" y="472.499" fill="none" stroke="#330e00" stroke-linecap="round" stroke-linejoin="round" stroke-miterlimit="10" stroke-width="8"/><rect width="48" height="143" x="550.56" y="329.499" fill="none" stroke="#330e00" stroke-linecap="round" stroke-linejoin="round" stroke-miterlimit="10" stroke-width="8"/><path fill="none" stroke="#330e00" stroke-linecap="round" stroke-linejoin="round" stroke-miterlimit="10" stroke-width="8" d="
			M593.226,329.499h-37.333v-2.335c0-10.309,8.357-18.667,18.667-18.667h0c10.309,0,18.667,8.357,18.667,18.667V329.499z"/><line x1="536.712" x2="536.712" y1="351.871" y2="441.196" fill="none" stroke="#330e00" stroke-linecap="round" stroke-linejoin="round" stroke-miterlimit="10" stroke-width="8"/><line x1="550.557" x2="536.712" y1="366.332" y2="366.332" fill="none" stroke="#330e00" stroke-linecap="round" stroke-linejoin="round" stroke-miterlimit="10" stroke-width="8"/><path fill="none" stroke="#330e00" stroke-linecap="round" stroke-linejoin="round" stroke-miterlimit="10" stroke-width="8" d="
			M588.81,684.499c0,7.87-6.38,14.25-14.25,14.25s-14.25-6.38-14.25-14.25H588.81z"/></g><g><g opacity=".3"><path fill="#2d2d2d" stroke="#2d2d2d" stroke-linecap="round" stroke-linejoin="round" stroke-miterlimit="10" stroke-width="8" d="
			M722.964,681.36l-48.541-35.267c-8.043-5.843-9.825-17.1-3.982-25.142l159.878-220.053c5.843-8.043,17.1-9.825,25.142-3.982
			l48.541,35.267c8.043,5.843,9.825,17.1,3.982,25.142L748.107,677.378C742.263,685.42,731.007,687.203,722.964,681.36z"/><path fill="#2d2d2d" stroke="#2d2d2d" stroke-linecap="round" stroke-linejoin="round" stroke-miterlimit="10" stroke-width="8" d="
			M745.135,653.62h-60c-9.941,0-18-8.059-18-18v-272c0-9.941,8.059-18,18-18h60c9.941,0,18,8.059,18,18v272
			C763.135,645.562,755.076,653.62,745.135,653.62z"/><path fill="#2d2d2d" stroke="#2d2d2d" stroke-linecap="round" stroke-linejoin="round" stroke-miterlimit="10" stroke-width="8" d="
			M737.818,668.802l-57.676-16.538c-9.556-2.74-15.081-12.708-12.341-22.264l74.973-261.463c2.74-9.556,12.708-15.081,22.264-12.341
			l57.676,16.538c9.556,2.74,15.081,12.708,12.341,22.264L760.082,656.46C757.342,666.016,747.374,671.542,737.818,668.802z"/></g><path fill="#fff" d="M717.964,665.36l-48.541-35.267c-8.043-5.843-9.825-17.1-3.982-25.142
				l159.878-220.053c5.843-8.043,17.1-9.825,25.142-3.982l48.541,35.267c8.043,5.843,9.825,17.1,3.982,25.142L743.107,661.378
				C737.263,669.42,726.007,671.203,717.964,665.36z"/><path fill="none" stroke="#330e00" stroke-linecap="round" stroke-linejoin="round" stroke-miterlimit="10" stroke-width="8" d="
				M717.964,665.36l-48.541-35.267c-8.043-5.843-9.825-17.1-3.982-25.142l159.878-220.053c5.843-8.043,17.1-9.825,25.142-3.982
				l48.541,35.267c8.043,5.843,9.825,17.1,3.982,25.142L743.107,661.378C737.263,669.42,726.007,671.203,717.964,665.36z"/><path fill="none" stroke="#330e00" stroke-linecap="round" stroke-linejoin="round" stroke-miterlimit="10" stroke-width="8" d="
				M797.183,586.948l-77.666-56.427l105.801-145.623c5.843-8.043,17.1-9.825,25.142-3.982l48.541,35.267
				c8.043,5.843,9.825,17.1,3.982,25.142L797.183,586.948z"/><path fill="#8c6239" d="M874.77,480.158l-77.666-56.427l28.214-38.833
				c5.843-8.043,17.1-9.825,25.142-3.982l48.541,35.267c8.043,5.843,9.825,17.1,3.982,25.142L874.77,480.158z"/><path fill="none" stroke="#330e00" stroke-linecap="round" stroke-linejoin="round" stroke-miterlimit="10" stroke-width="8" d="
				M874.77,480.158l-77.666-56.427l28.214-38.833c5.843-8.043,17.1-9.825,25.142-3.982l48.541,35.267
				c8.043,5.843,9.825,17.1,3.982,25.142L874.77,480.158z"/><rect width="96" height="66" x="729.747" y="499.037" fill="#42210b" transform="rotate(36.002 777.733 532.006)"/><rect width="96" height="66" x="768.541" y="445.642" fill="#603813" transform="rotate(36.002 816.524 478.612)"/><rect width="96" height="66" x="768.541" y="445.642" fill="none" stroke="#330e00" stroke-linecap="round" stroke-linejoin="round" stroke-miterlimit="10" stroke-width="8" transform="rotate(36.002 816.524 478.612)"/><rect width="96" height="66" x="729.747" y="499.037" fill="none" stroke="#330e00" stroke-linecap="round" stroke-linejoin="round" stroke-miterlimit="10" stroke-width="8" transform="rotate(36.002 777.733 532.006)"/><circle cx="687.257" cy="614.62" r="8" fill="none" stroke="#330e00" stroke-linecap="round" stroke-linejoin="round" stroke-miterlimit="10" stroke-width="8"/><path fill="#2d2d2d" stroke="#2d2d2d" stroke-linecap="round" stroke-linejoin="round" stroke-miterlimit="10" stroke-width="8" d="
			M824.714,360.733l-57.676-16.538c-9.556-2.74-19.524,2.785-22.264,12.341l-74.973,261.463c-2.74,9.556,2.785,19.524,12.341,22.264
			l52.608-3.013c0.465,0.133,4.919,0.276,5.385,0.37h4.783l7.68-0.828c8.177-0.881,14.995-6.649,17.221-14.567l67.237-239.229
			C839.796,373.441,834.27,363.473,824.714,360.733z" opacity=".3"/><g><path fill="#fff" d="M732.818,652.802l-57.676-16.538c-9.556-2.74-15.081-12.708-12.341-22.264
				l74.973-261.463c2.74-9.556,12.708-15.081,22.264-12.341l57.676,16.538c9.556,2.74,15.081,12.708,12.341,22.264L755.082,640.46
				C752.342,650.016,742.374,655.542,732.818,652.802z"/><path fill="none" stroke="#330e00" stroke-linecap="round" stroke-linejoin="round" stroke-miterlimit="10" stroke-width="8" d="
				M732.818,652.802l-57.676-16.538c-9.556-2.74-15.081-12.708-12.341-22.264l74.973-261.463
				c2.74-9.556,12.708-15.081,22.264-12.341l57.676,16.538c9.556,2.74,15.081,12.708,12.341,22.264L755.082,640.46
				C752.342,650.016,742.374,655.542,732.818,652.802z"/><path fill="#bd3f3a" d="M816.825,425.138l-92.281-26.461l13.231-46.141
				c2.74-9.556,12.708-15.081,22.264-12.341l57.676,16.538c9.556,2.74,15.081,12.708,12.341,22.264L816.825,425.138z"/><path fill="none" stroke="#330e00" stroke-linecap="round" stroke-linejoin="round" stroke-miterlimit="10" stroke-width="8" d="
				M780.441,552.024l-92.281-26.461l49.615-173.027c2.74-9.556,12.708-15.081,22.264-12.341l57.676,16.538
				c9.556,2.74,15.081,12.708,12.341,22.264L780.441,552.024z"/><rect width="96" height="66" x="713.588" y="410.629" fill="#a33500" transform="rotate(15.997 761.684 443.708)"/><rect width="96" height="66" x="713.588" y="410.629" fill="none" stroke="#330e00" stroke-linecap="round" stroke-linejoin="round" stroke-miterlimit="10" stroke-width="8" transform="rotate(15.997 761.684 443.708)"/><rect width="96" height="66" x="695.396" y="474.072" fill="#6d2300" transform="rotate(15.997 743.488 507.16)"/><rect width="96" height="66" x="695.396" y="474.072" fill="none" stroke="#330e00" stroke-linecap="round" stroke-linejoin="round" stroke-miterlimit="10" stroke-width="8" transform="rotate(15.997 743.488 507.16)"/><circle cx="686.609" cy="615.624" r="8" fill="none" stroke="#330e00" stroke-linecap="round" stroke-linejoin="round" stroke-miterlimit="10" stroke-width="8"/></g><path fill="#2d2d2d" stroke="#2d2d2d" stroke-linecap="round" stroke-linejoin="round" stroke-miterlimit="10" stroke-width="8" d="
			M748.135,641.62h-60c-9.941,0-18-8.059-18-18v-272c0-9.941,8.059-18,18-18h60c9.941,0,18,8.059,18,18v272
			C766.135,633.562,758.076,641.62,748.135,641.62z" opacity=".3"/><g><path fill="#fff" d="M740.135,637.62h-60c-9.941,0-18-8.059-18-18v-272c0-9.941,8.059-18,18-18h60
				c9.941,0,18,8.059,18,18v272C758.135,629.562,750.076,637.62,740.135,637.62z"/><path fill="none" stroke="#330e00" stroke-linecap="round" stroke-linejoin="round" stroke-miterlimit="10" stroke-width="8" d="
				M740.135,637.62h-60c-9.941,0-18-8.059-18-18v-272c0-9.941,8.059-18,18-18h60c9.941,0,18,8.059,18,18v272
				C758.135,629.562,750.076,637.62,740.135,637.62z"/><path fill="none" stroke="#330e00" stroke-linecap="round" stroke-linejoin="round" stroke-miterlimit="10" stroke-width="8" d="
				M758.135,527.62h-96v-180c0-9.941,8.059-18,18-18h60c9.941,0,18,8.059,18,18V527.62z"/><path fill="#f99" d="M758.135,395.62h-96v-48c0-9.941,8.059-18,18-18h60c9.941,0,18,8.059,18,18V395.62
				z"/><path fill="none" stroke="#330e00" stroke-linecap="round" stroke-linejoin="round" stroke-miterlimit="10" stroke-width="8" d="
				M758.135,395.62h-96v-48c0-9.941,8.059-18,18-18h60c9.941,0,18,8.059,18,18V395.62z"/><rect width="96" height="66" x="662.135" y="395.62" fill="red"/><rect width="96" height="66" x="662.135" y="395.62" fill="#f33" stroke="#330e00" stroke-linecap="round" stroke-linejoin="round" stroke-miterlimit="10" stroke-width="8"/><rect width="96" height="66" x="662.135" y="461.62" fill="#bf0000"/><rect width="96" height="66" x="662.135" y="461.62" fill="none" stroke="#330e00" stroke-linecap="round" stroke-linejoin="round" stroke-miterlimit="10" stroke-width="8"/><circle cx="685.468" cy="614.62" r="8" fill="none" stroke="#330e00" stroke-linecap="round" stroke-linejoin="round" stroke-miterlimit="10" stroke-width="8"/><path fill="#330e00" d="M676.294 544.228h-1.702v2.905h-.845v-6.815h2.547c1.955 0 2.848.839 2.848 1.96C679.142 543.379 678.273 544.228 676.294 544.228zM676.294 543.643c1.424 0 1.979-.527 1.979-1.365 0-.878-.556-1.385-1.979-1.385h-1.702v2.75H676.294zM685.61 545.515h-3.838l-.736 1.618h-.894l3.078-6.728h.954l3.065 6.728h-.894L685.61 545.515zM683.691 541.263l-1.665 3.687h3.331L683.691 541.263zM695.12 540.317v6.815h-.845l-4.671-5.733v5.733h-.845v-6.815h.845l4.671 5.724v-5.724H695.12zM696.604 540.317h5.54v.565h-2.342v6.25h-.845v-6.25h-2.354V540.317zM707.441 547.201c-2.366 0-4.177-1.434-4.177-3.481 0-2.037 1.811-3.48 4.177-3.48 2.377 0 4.176 1.443 4.176 3.48C711.617 545.768 709.818 547.201 707.441 547.201zM707.441 546.606c1.87 0 3.307-1.102 3.307-2.887 0-1.784-1.437-2.876-3.307-2.876-1.871 0-3.308 1.092-3.308 2.876C704.134 545.505 705.57 546.606 707.441 546.606zM719.69 540.317v6.815h-.845l-4.671-5.733v5.733h-.845v-6.815h.845l4.671 5.724v-5.724H719.69zM726.183 540.873h-3.561v2.545h3.198v.565h-3.198v2.584h3.561v.565h-4.405v-6.825h4.405V540.873z"/><g><path fill="#330e00" d="M728.373 540.199h1.563v.238h-.63v2.006h-.301v-2.006h-.633V540.199zM730.352 540.216h.324l.848 1.841.848-1.841h.321v2.228h-.301v-1.661l-.762 1.661h-.212l-.765-1.664v1.664h-.302V540.216z"/></g></g></g></svg>