<svg xmlns="http://www.w3.org/2000/svg" data-name="Layer 1" viewBox="0 0 64 64"><polygon fill="#4f5d75" points="38 45 40 45 44 45 46 45 48 45 48 11 45 11 41 11 38 11 38 15 38 45"/><polygon fill="#4f5d75" points="26 15 26 11 23 11 19 11 16 11 16 45 18 45 20 45 24 45 26 45 26 15"/><polygon fill="#2d3142" points="34 23 34 29 34 35 34 41 34 45 35.03 45 37 45 38 45 40 45 44 45 44 15 38 15 34 15 34 19 34 23"/><polygon fill="#2d3142" points="30 35 30 29 30 23 30 19 30 15 26 15 20 15 20 45 24 45 26 45 27 45 28.97 45 30 45 30 41 30 35"/><rect width="10" height="26" x="27" y="19" fill="#4f5d75"/><rect width="14" height="2" x="2" y="43" fill="#4f5d75"/><rect width="2" height="10" x="7" y="33" fill="#2d3142"/><polygon fill="#7fb800" points="3 37 8 39 13 37 13 27 11 31 8 25 5 31 3 27 3 37"/><rect width="14" height="2" x="48" y="43" fill="#4f5d75"/><rect width="2" height="10" x="56" y="33" fill="#2d3142"/><polygon fill="#7fb800" points="52 37 57 39 62 37 62 27 60 31 57 25 54 31 52 27 52 37"/><rect width="4" height="4" x="41" y="7" fill="#ff9f1c"/><rect width="4" height="4" x="19" y="7" fill="#ff9f1c"/><rect width="2" height="4" x="42" y="3" fill="#2d3142"/><rect width="2" height="4" x="20" y="3" fill="#2d3142"/><polygon fill="#1b98e0" points="61 61 3 61 24 45 40 45 61 61"/><polygon fill="#f71735" points="43 61 21 61 28.966 45 35.034 45 43 61"/><path fill="#41ead4" d="M32,39h0a2,2,0,0,1,2,2v4a0,0,0,0,1,0,0H30a0,0,0,0,1,0,0V41A2,2,0,0,1,32,39Z"/><rect width="4" height="2" x="30" y="22" fill="#ff9f1c"/><rect width="4" height="2" x="30" y="28" fill="#ff9f1c"/><rect width="4" height="2" x="30" y="34" fill="#ff9f1c"/></svg>