<svg xmlns="http://www.w3.org/2000/svg" viewBox="0 0 48 48"><g data-name="Spring Suspension"><path fill="#374f68" d="M10 45H6a1 1 0 0 1 0-2h4A1 1 0 0 1 10 45zM20 45H16a1 1 0 0 1 0-2h4A1 1 0 0 1 20 45z"/><rect width="4" height="12" x="11" y="20" fill="#374f68"/><rect width="14" height="6" x="6" y="11" fill="#7c7d7d"/><path fill="#919191" d="M20,11v4H12a4,4,0,0,1-4-4Z"/><rect width="14" height="6" x="6" y="35" fill="#7c7d7d" rx="2"/><path fill="#919191" d="M20,37v2H12a4,4,0,0,1-4-4H18A2,2,0,0,1,20,37Z"/><rect width="4" height="3" x="11" y="17" fill="#2c435e"/><rect width="3" height="2" x="11" y="18" fill="#374f68"/><rect width="4" height="3" x="11" y="32" fill="#2c435e"/><rect width="3" height="1" x="11" y="34" fill="#374f68"/><path fill="#747575" d="M17,41v4a2,2,0,0,1-1.18,1.82c-.51.25-.52.18-4.82.18a2,2,0,0,1-2-2V41Z"/><path fill="#7c7d7d" d="M16 42c0 4.2.07 4.31-.18 4.82-.51.25-.52.18-4.82.18a2 2 0 0 1-2-2V42zM20 8v3H6c0-3.19-.41-6.49 3.15-8.85A7 7 0 0 1 20 8z"/><path fill="#919191" d="M20,8V9H11A3,3,0,0,1,8,6,6.92,6.92,0,0,1,9.15,2.15,7,7,0,0,1,20,8Z"/><circle cx="13" cy="6" r="2" fill="#374f68"/><path fill="#db5669" d="M20,31H13.14l7.14-2A1,1,0,0,0,20,27H13.14l7.14-2A1,1,0,0,0,20,23H13.14l7.14-2A1,1,0,0,0,20,19H6a1,1,0,0,0,0,2h6.86L5.72,23A1,1,0,0,0,6,25h6.86L5.72,27A1,1,0,0,0,6,29h6.86L5.72,31A1,1,0,0,0,6,33H20A1,1,0,0,0,20,31Z"/><path fill="#c4455e" d="M5.08,31.65C12.62,29.5,11.31,30,9.36,30,5.47,31.11,5.32,31,5.08,31.65Z"/><path fill="#f26674" d="M18 20a1 1 0 0 1 .92 1.35L20.28 21A1 1 0 0 0 20 19H6a1 1 0 0 0-1 1zM20.28 29A1 1 0 0 0 20 27c-6.43 0-4.45-.26-8.86 1H18a1 1 0 0 1 1 .86C19.07 29.45 18.41 29.49 20.28 29z"/><path fill="#c4455e" d="M5.08,23.65C12.64,21.49,11.31,22,9.36,22,5.47,23.11,5.32,23,5.08,23.65Z"/><path fill="#f26674" d="M20,31c-6.43,0-4.45-.26-8.86,1H18a1,1,0,0,1,1,1h1A1,1,0,0,0,20,31Z"/><path fill="#c4455e" d="M5.08,27.65C12.62,25.5,11.31,26,9.36,26,5.47,27.11,5.32,27,5.08,27.65Z"/><path fill="#f26674" d="M20,23c-6.43,0-4.45-.26-8.86,1H18a1,1,0,0,1,1,.86c.08.59-.58.63,1.29.1A1,1,0,0,0,20,23Z"/><path fill="#374f68" d="M32 45H28a1 1 0 0 1 0-2h4A1 1 0 0 1 32 45zM42 45H38a1 1 0 0 1 0-2h4A1 1 0 0 1 42 45z"/><rect width="4" height="12" x="33" y="20" fill="#374f68"/><rect width="14" height="6" x="28" y="11" fill="#7c7d7d"/><path fill="#919191" d="M42,11v4H34a4,4,0,0,1-4-4Z"/><rect width="14" height="6" x="28" y="35" fill="#7c7d7d" rx="2"/><path fill="#919191" d="M42,37v2H34a4,4,0,0,1-4-4H40A2,2,0,0,1,42,37Z"/><rect width="4" height="3" x="33" y="17" fill="#2c435e"/><rect width="3" height="2" x="33" y="18" fill="#374f68"/><rect width="4" height="3" x="33" y="32" fill="#2c435e"/><rect width="3" height="1" x="33" y="34" fill="#374f68"/><path fill="#747575" d="M39,41v4a2,2,0,0,1-1.18,1.82c-.51.25-.52.18-4.82.18a2,2,0,0,1-2-2V41Z"/><path fill="#7c7d7d" d="M38 42c0 4.2.07 4.31-.18 4.82-.51.25-.52.18-4.82.18a2 2 0 0 1-2-2V42zM42 8v3H28c0-3.19-.41-6.49 3.15-8.85A7 7 0 0 1 42 8z"/><path fill="#919191" d="M42,8V9H33a3,3,0,0,1-3-3,6.92,6.92,0,0,1,1.15-3.85A7,7,0,0,1,42,8Z"/><circle cx="35" cy="6" r="2" fill="#374f68"/><path fill="#db5669" d="M42,31H35.14l7.14-2A1,1,0,0,0,42,27H35.14l7.14-2A1,1,0,0,0,42,23H35.14l7.14-2A1,1,0,0,0,42,19H28a1,1,0,0,0,0,2h6.86l-7.14,2A1,1,0,0,0,28,25h6.86l-7.14,2A1,1,0,0,0,28,29h6.86l-7.14,2A1,1,0,0,0,28,33H42A1,1,0,0,0,42,31Z"/><path fill="#c4455e" d="M27.08,31.65C34.62,29.5,33.31,30,31.36,30,27.47,31.11,27.32,31,27.08,31.65Z"/><path fill="#f26674" d="M40 20a1 1 0 0 1 .92 1.35L42.28 21A1 1 0 0 0 42 19H28a1 1 0 0 0-1 1zM42.28 29A1 1 0 0 0 42 27c-6.43 0-4.45-.26-8.86 1H40a1 1 0 0 1 1 .86C41.07 29.45 40.41 29.49 42.28 29z"/><path fill="#c4455e" d="M27.08,23.65C34.64,21.49,33.31,22,31.36,22,27.47,23.11,27.32,23,27.08,23.65Z"/><path fill="#f26674" d="M42,31c-6.43,0-4.45-.26-8.86,1H40a1,1,0,0,1,1,1h1A1,1,0,0,0,42,31Z"/><path fill="#c4455e" d="M27.08,27.65C34.62,25.5,33.31,26,31.36,26,27.47,27.11,27.32,27,27.08,27.65Z"/><path fill="#f26674" d="M42,23c-6.43,0-4.45-.26-8.86,1H40a1,1,0,0,1,1,.86c.08.59-.58.63,1.29.1A1,1,0,0,0,42,23Z"/></g></svg>