<svg xmlns="http://www.w3.org/2000/svg" width="48" height="48" viewBox="0 0 48 48"><g transform="translate(0 -1004.362)"><circle cx="24" cy="1028.362" r="24" fill="#ef4c45" fill-rule="evenodd"/><g transform="translate(8 -8)"><rect width="3" height="15.912" x="15" y="1034.45" fill="#f9b536"/><rect width="3" height="22" x="21" y="1028.362" fill="#f9b536"/><rect width="3" height="10" x="3" y="1040.362" fill="#f9b536"/><rect width="3" height="12" x="9" y="1038.362" fill="#f9b536"/><path fill="none" stroke="#2dbca4" stroke-linecap="round" stroke-linejoin="round" d="M2.5069862 1036.8608c8.3630798-1.6585 16.5358998-9 19.9999998-15M20.893876 1021.7281l1.99259-.5351.53183 1.9893"/><path fill="none" stroke="#2dbca4" d="M23 1036.3622l0 6.9232 0 1.1538 0 6.923M30.499997 1043.8622l-6.923052 0-1.153842 0-6.923052 0"/><circle cx="23" cy="1043.862" r="1" fill="none" stroke="#2dbca4" stroke-linecap="round" stroke-linejoin="round"/><circle cx="23" cy="1043.862" r="3" fill="none" stroke="#2dbca4" stroke-linecap="round" stroke-linejoin="round"/><circle cx="23" cy="1043.862" r="5" fill="none" stroke="#2dbca4" stroke-linecap="round" stroke-linejoin="round"/></g></g></svg>