<svg xmlns="http://www.w3.org/2000/svg" enable-background="new 0 0 64 64" viewBox="0 0 64 64"><path fill="#759acc" d="M16,53l2-3h2V39H2v23h14V53z"/><path fill="#ffe38f" d="M56,28c0-7.956-6.637-14.362-14.676-13.984c-6.892,0.324-12.653,5.827-13.267,12.7
		c-0.482,5.393,2.104,10.21,6.203,12.934c1.098,0.73,1.74,1.975,1.74,3.294V45h12v-2.058c0-1.322,0.649-2.567,1.75-3.3
		C53.515,37.136,56,32.863,56,28z"/><path fill="#526273" d="M48.969,29.706L51,29.68l-0.046-3.591l-2.031,0.026c-0.178-0.655-0.444-1.271-0.788-1.837
		l1.417-1.454l-2.572-2.507l-1.417,1.454c-0.575-0.329-1.198-0.58-1.857-0.741L43.68,19l-3.591,0.046l0.026,2.031
		c-0.655,0.178-1.271,0.444-1.837,0.788l-1.454-1.417l-2.507,2.572l1.454,1.417c-0.329,0.575-0.58,1.198-0.741,1.857L33,26.32
		l0.046,3.591l2.031-0.026c0.178,0.655,0.444,1.271,0.788,1.837l-1.417,1.454l2.572,2.507l1.417-1.454
		c0.575,0.329,1.198,0.58,1.857,0.741L40.32,37l3.591-0.046l-0.026-2.031c0.655-0.178,1.271-0.444,1.837-0.788l1.454,1.417
		l2.507-2.572l-1.454-1.417C48.558,30.989,48.808,30.366,48.969,29.706z M42.017,30.96c-1.661,0.021-3.024-1.308-3.045-2.968
		c-0.021-1.661,1.308-3.024,2.968-3.045c1.661-0.021,3.024,1.308,3.045,2.968C45.007,29.575,43.678,30.939,42.017,30.96z"/><polygon fill="#ff8088" points="42 2 36 7 39 7 39 10 45 10 45 7 48 7"/><polygon fill="#ff8088" points="61.293 8.707 53.515 8 55.636 10.121 53.515 12.243 57.757 16.485 59.879 14.364 62 16.485"/><polygon fill="#ff8088" points="23.222 8.707 22.515 16.485 24.636 14.364 26.757 16.485 31 12.243 28.879 10.121 31 8"/><path fill="#526273" d="M47,49H37c-0.552,0-1-0.448-1-1l0,0c0-0.552,0.448-1,1-1h10c0.552,0,1,0.448,1,1l0,0
		C48,48.552,47.552,49,47,49z"/><path fill="#adc4e6" d="M12,55h-2v-5c0-0.552,0.448-1,1-1c1.103,0,2-0.897,2-2s-0.897-2-2-2s-2,0.897-2,2H7
		c0-2.206,1.794-4,4-4s4,1.794,4,4c0,1.86-1.277,3.428-3,3.874V55z"/><rect width="2" height="2" x="10" y="57" fill="#adc4e6"/><rect width="2" height="2" x="18" y="54" fill="#759acc"/><rect width="2" height="2" x="19" y="59" fill="#759acc"/><rect width="2" height="2" x="23" y="55" fill="#759acc"/><rect width="2" height="2" x="22" y="50" fill="#759acc"/><rect width="2" height="2" x="24" y="59" fill="#759acc"/><path fill="#526273" d="M47,51H37c0,1.451,1.718,2.661,4,2.94V57c0,1.103-0.897,2-2,2H28v2h11c2.206,0,4-1.794,4-4v-3.06
	C45.282,53.661,47,52.451,47,51z"/></svg>