<svg xmlns="http://www.w3.org/2000/svg" data-name="Layer 1" viewBox="0 0 512 512"><path fill="#b28b6a" d="M487.51,258.74c0,77.52-68.09,117.73-138.12,117.73-43.9,0-87.02-15.8-113.1-46.66992a104.08645,104.08645,0,0,1-12.66-18.74C215.77,296.12,211.27,278.66992,211.27,258.74a113.91989,113.91989,0,0,1,4.77-30.85c11.61-40.85,42.42-85.29,69.6-105.49011A23.73167,23.73167,0,0,0,291.13,89.96L262.04,47.30005a13.58616,13.58616,0,0,1,10.67-21.23l1.15-.05005a13.54151,13.54151,0,0,1,7.9,2.13989L300.24,40a22.40906,22.40906,0,0,0,27.93-3.02l8.68-8.66992a17.72627,17.72627,0,0,1,25.08,0L370.73,37.1a22.40412,22.40412,0,0,0,27.75,3.14l20.17-12.65a13.55762,13.55762,0,0,1,7.21-2.08q.45,0,.9.03a13.5907,13.5907,0,0,1,10.35,21.22L407.64,89.96a23.73028,23.73028,0,0,0,5.5,32.43994C447.42,147.8999,487.51,211.97,487.51,258.74Z"/><path fill="#a17855" d="M340.94687 37.10042a22.39886 22.39886 0 0 0 27.751 3.13524l3.23456-2.02826c-.41107-.35518-.81771-.71788-1.20691-1.107l-8.79068-8.78877a17.72714 17.72714 0 0 0-25.08969 0l-2.34451 2.34383zM413.13568 122.39873a23.74073 23.74073 0 0 1-5.50013-32.43523l29.47258-43.20743a13.58375 13.58375 0 0 0-10.347-21.21176c-.297-.02375-.60561-.03562-.90259-.03562a13.614 13.614 0 0 0-7.21123 2.07841l-10.007 6.2751a13.43753 13.43753 0 0 1-1.31087 12.89387L377.8569 89.9635a23.74073 23.74073 0 0 0 5.50013 32.43523c34.2841 25.4993 74.37744 89.57409 74.37744 136.34452 0 71.99692-58.7385 111.79739-123.21177 117.1036q7.39594.60691 14.86727.61818c70.03 0 138.12316-40.20265 138.12316-117.72178C487.51313 211.97282 447.41979 147.898 413.13568 122.39873zM270.46564 39.99811a22.4092 22.4092 0 0 0 26.75171-1.939l-15.45707-9.90206a13.56644 13.56644 0 0 0-7.90038-2.13777l-1.152.04761a13.46057 13.46057 0 0 0-11.75182 7.83939z"/><path fill="#f9bd81" d="M161.65045,451.70416a38.84486,38.84486,0,0,0-17.14278.09546l-23.847,5.53468-1.392,7.23447,49.07413-11.38972Z"/><path fill="#fdd8ae" d="M119.26868,460.57224l55.01762-12.76918a38.84556,38.84556,0,0,1,17.14277-.09547L324.315,476.99364a56.67415,56.67415,0,0,0,45.22581-9.29111l125.87585-90.26945a23.56988,23.56988,0,0,0,9.79373-20.51858v0a23.56422,23.56422,0,0,0-30.38231-21.183L299.13361,389.19094,142.79209,338.317Z"/><path fill="#fbbf7d" d="M503.4513,349.22942a23.5415,23.5415,0,0,1-5.15589,5.06829L372.41953,444.56716a56.67342,56.67342,0,0,1-45.22578,9.291l-132.8859-29.286a38.84843,38.84843,0,0,0-17.14278.09546l-53.37135,12.38714-4.525,23.51756,55.01762-12.76922a38.84486,38.84486,0,0,1,17.14278-.09546l132.88584,29.286a56.67373,56.67373,0,0,0,45.22584-9.29127L495.4166,377.43307a23.60206,23.60206,0,0,0,8.0347-28.20365Z"/><path fill="#fdd8ae" d="M351.47306,384.85416a24.33752,24.33752,0,0,1-.74447,5.98412,24.82133,24.82133,0,0,1-28.87539,18.35914l-43.05-9.70557L108.34029,348.71142,186.55887,325.182a109.79914,109.79914,0,0,1,75.37969,4.426l74.58562,32.41136a24.7995,24.7995,0,0,1,13.79661,15.36442l.00079-.00231.00921.03344q.24474.78645.43821,1.58888c.017.06978.03653.13907.053.20909.13329.57881.25191,1.16174.3434,1.75109a1.82836,1.82836,0,0,0,.03968.22823,15.02585,15.02585,0,0,1,.16873,1.49851C351.44325,383.40531,351.47306,384.12974,351.47306,384.85416Z"/><path fill="#fbbf7d" d="M351.47306,384.85416a24.33752,24.33752,0,0,1-.74447,5.98412,24.82133,24.82133,0,0,1-28.87539,18.35914l-43.05-9.70557a11.91067,11.91067,0,0,1,14.532-11.61087l27.8331,6.28164a24.83637,24.83637,0,0,0,29.15329-16.78116,24.40334,24.40334,0,0,1,.84377,3.5825,1.82836,1.82836,0,0,0,.03968.22823c.06949.4962.129,1.00232.16873,1.49851C351.44325,383.40531,351.47306,384.12974,351.47306,384.85416Z"/><path fill="#2370b5" d="M.75,327.10011l85.75486-5.771,60.41734-4.78866a16.91591,16.91591,0,0,1,18.19674,15.53206l10.35917,126.58409a16.91932,16.91932,0,0,1-15.52677,18.20316L99.534,481.64847.75,488.89038"/><path fill="#1067ae" d="M159.95134,476.8598,99.534,481.64847,86.50486,321.32915l60.41734-4.78866a16.91591,16.91591,0,0,1,18.19674,15.53206l10.35917,126.58409A16.91932,16.91932,0,0,1,159.95134,476.8598Z"/><ellipse cx="349.39" cy="244.445" fill="#fed947" rx="78.169" ry="78.151"/><path fill="#fecc30" d="M349.39,166.29412a78.52576,78.52576,0,0,0-14.88933,1.43346,78.14387,78.14387,0,0,1,0,153.43435A78.15136,78.15136,0,1,0,349.39,166.29412Z"/><path fill="#f8be32" d="M349.39,330.03792a85.59329,85.59329,0,1,1,85.61362-85.59329A85.70018,85.70018,0,0,1,349.39,330.03792Zm0-156.30079a70.7075,70.7075,0,1,0,70.7243,70.7075A70.796,70.796,0,0,0,349.39,173.73713Z"/><path fill="#fff" d="M371.03814 215.73231H327.7418a7.4429 7.4429 0 1 1 0-14.88579h43.29634a7.4429 7.4429 0 1 1 0 14.88579zM371.03814 239.34315H327.7418a7.4429 7.4429 0 1 1 0-14.88579h43.29634a7.4429 7.4429 0 1 1 0 14.88579z"/><path fill="#fff" d="M359.23088,295.913a7.42631,7.42631,0,0,1-5.38429-2.30167l-31.48812-32.959a7.443,7.443,0,0,1,5.38333-12.58411H335.614a16.16795,16.16795,0,1,0,0-32.33589H327.7418a7.4429,7.4429,0,1,1,0-14.88579H335.614a31.05468,31.05468,0,0,1,8.42468,60.94645l20.57461,21.53594a7.4429,7.4429,0,0,1-5.38236,12.58411Z"/><path fill="#57565c" d="M406.56,114.93994c-.17.06006-.34.12012-.52.17a210.753,210.753,0,0,1-58,8.14h-.07a210.77122,210.77122,0,0,1-55.29-7.4,5.955,5.955,0,0,1-.84-.28992A23.65316,23.65316,0,0,0,295.16,101.24a7.01026,7.01026,0,0,1,1.43006.24A195.68311,195.68311,0,0,0,347.97,108.37h.07a195.83179,195.83179,0,0,0,53.9-7.57,7.01673,7.01673,0,0,1,1.74-.28,7.44306,7.44306,0,0,1,2.88,14.41992Z"/><path fill="#57565c" d="M403.98029,115.39957a7.44453,7.44453,0,0,1-6.03134-11.79815c2.18687-3.03143,22.28794-29.5322,54.14538-27.6269a58.14,58.14,0,0,1,30.26575,11.0151,7.44346,7.44346,0,1,1-8.669,12.10245,43.54138,43.54138,0,0,0-22.49587-8.2589c-24.30954-1.45853-40.49441,20.53968-41.171,21.47682A7.43644,7.43644,0,0,1,403.98029,115.39957Z"/><path fill="#57565c" d="M474.04009,136.87348a7.43086,7.43086,0,0,1-5.70563-2.65734A60.24,60.24,0,0,0,445.03789,117.176a61.3516,61.3516,0,0,0-39.06364-2.04776,7.44283,7.44283,0,1,1-3.97533-14.345,76.35554,76.35554,0,0,1,48.64089,2.60017A75.0672,75.0672,0,0,1,479.738,124.645a7.443,7.443,0,0,1-5.69788,12.22844Z"/></svg>