<svg xmlns="http://www.w3.org/2000/svg" width="64" height="64" enable-background="new 0 0 64 64" viewBox="0 0 64 64"><path fill="#FDBF5E" d="M29.805,2.74c0,0.47-0.39,0.86-0.86,0.86c-0.48,0-0.86-0.39-0.86-0.86c0-0.48,0.38-0.86,0.86-0.86
		C29.415,1.88,29.805,2.26,29.805,2.74z"/><path fill="#010101" d="M56.567,62.798l-6.613-26.764v-0.029l-0.63-2.521c-0.107-0.427-0.494-0.737-0.941-0.737H29.93V22.739
			l22.002-0.116c0.378,0,0.727-0.223,0.883-0.562c0.155-0.349,0.097-0.747-0.146-1.038l-5.944-6.924l5.915-6.264
			c0.262-0.281,0.33-0.698,0.184-1.057c-0.155-0.349-0.504-0.582-0.892-0.582H29.93V5.362c1.047-0.398,1.804-1.406,1.804-2.589
			C31.733,1.241,30.482,0,28.96,0c-1.532,0-2.773,1.241-2.773,2.773c0,1.183,0.747,2.192,1.803,2.589v27.384H15.617
			c-0.446,0-0.834,0.31-0.941,0.747L7.433,62.798c-0.068,0.281,0,0.592,0.184,0.824C7.801,63.855,8.082,64,8.373,64h47.253
			c0.291,0,0.572-0.146,0.756-0.378C56.567,63.389,56.635,63.079,56.567,62.798z M29.93,8.136h19.753l-4.965,5.266
			c-0.339,0.359-0.349,0.921-0.029,1.299l5.139,5.993L29.93,20.8V8.136z M51.457,50.211H35.554c0.146-0.553,0.233-1.144,0.233-1.745
			v-0.039h15.234L51.457,50.211z M48.431,37.944l2.104,8.543H37.716L48.431,37.944z M47.627,34.686l0.291,1.183L35.302,45.935
			c-0.233-0.572-0.533-1.096-0.902-1.581l12.121-9.668H47.627z M29.93,34.686h13.479l-10.395,8.301
			c-0.892-0.659-1.939-1.115-3.084-1.27V34.686z M28.96,1.939c0.456,0,0.834,0.368,0.834,0.834c0,0.456-0.378,0.834-0.834,0.834
			c-0.465,0-0.834-0.378-0.834-0.834C28.126,2.308,28.494,1.939,28.96,1.939z M28.96,50.434c0.533,0,0.97-0.436,0.97-0.97v-5.789
			c2.23,0.446,3.918,2.424,3.918,4.79c0,2.696-2.191,4.897-4.887,4.897c-2.705,0-4.897-2.201-4.897-4.897
			c0-2.366,1.687-4.344,3.927-4.79v5.789C27.99,49.998,28.417,50.434,28.96,50.434z M16.383,34.686H27.99v7.03
			c-2.647,0.378-4.81,2.269-5.566,4.771h-8.96L16.383,34.686z M12.989,48.427h9.135v0.039c0,0.601,0.087,1.193,0.233,1.745h-9.813
			L12.989,48.427z M12.068,52.15h9.445L9.741,61.547L12.068,52.15z M12.213,62.061l11.52-9.202c0.388,0.465,0.844,0.882,1.348,1.232
			l-9.988,7.971H12.213z M18.196,62.061l8.834-7.04c0.611,0.175,1.261,0.281,1.93,0.281c2.405,0,4.519-1.261,5.741-3.152h17.241
			l2.444,9.91H18.196z"/><path fill="#FDBF5E" d="M49.828 20.693L29.93 20.8V8.136h19.753l-4.965 5.266c-.339.359-.349.921-.029 1.299L49.828 20.693zM51.457 50.211H35.554c.146-.553.233-1.144.233-1.745v-.039h15.234L51.457 50.211zM47.917 35.869L35.302 45.935c-.233-.572-.533-1.096-.902-1.581l12.121-9.668h1.105L47.917 35.869zM33.847 48.466c0 2.696-2.191 4.897-4.887 4.897-2.705 0-4.897-2.201-4.897-4.897 0-2.366 1.687-4.344 3.927-4.79v5.789c0 .533.427.97.97.97.533 0 .97-.436.97-.97v-5.789C32.16 44.121 33.847 46.099 33.847 48.466zM25.081 54.09l-9.988 7.971h-2.88l11.52-9.202C24.121 53.324 24.577 53.741 25.081 54.09zM22.356 50.211h-9.813l.446-1.784h9.135v.039C22.124 49.067 22.211 49.658 22.356 50.211z"/><path fill="#31A2DB" d="M43.409,34.686l-10.395,8.301c-0.892-0.659-1.939-1.115-3.084-1.27v-7.03H43.409z"/><polygon fill="#31A2DB" points="50.536 46.487 37.716 46.487 48.431 37.944"/><polygon fill="#31A2DB" points="21.513 52.15 9.741 61.547 12.068 52.15"/><path fill="#31A2DB" d="M27.99 34.686v7.03c-2.647.378-4.81 2.269-5.566 4.771h-8.96l2.919-11.801H27.99zM54.386 62.061H18.196l8.834-7.04c.611.175 1.261.281 1.93.281 2.405 0 4.519-1.261 5.741-3.152h17.241L54.386 62.061z"/></svg>