<svg xmlns="http://www.w3.org/2000/svg" width="48" height="48" viewBox="0 0 48 48"><g transform="translate(0 -1004.362)"><circle cx="24" cy="1028.362" r="24" fill="#ef4c45" fill-rule="evenodd"/><g transform="translate(7.5 -8.5)"><path fill="none" stroke="#105286" d="M16.262294 1026.6756l-2.646004 8.2315m-.240759 1.9044l-.574405 10.5507M5.6991432 1030.7195l10.5934018-6.7843M5.046875 1033.6747L4.375 1043.1903M18.25092 1024.9006l6.81158 7.5553M26.154354 1035.2337l.978229 8.7749M6.9185437 1032.931l4.8396893 2.5745M14.645796 1036.5716l10.065371-2.4054M6.0281092 1045.9252l5.4138908 2.847M14.015 1049.097l11.7975-2.5629"/><circle cx="17" cy="1024.362" r="2.5" fill="#f9b536"/><circle cx="5.5" cy="1031.862" r="2" fill="#f9b536"/><circle cx="13.5" cy="1036.362" r="2" fill="#f9b536"/><circle cx="25.5" cy="1033.862" r="2" fill="#f9b536"/><circle cx="4.5" cy="1044.862" r="2" fill="#f9b536"/><circle cx="12.5" cy="1048.862" r="2" fill="#f9b536"/><circle cx="27.5" cy="1045.862" r="2" fill="#f9b536"/></g></g></svg>