<svg xmlns="http://www.w3.org/2000/svg" data-name=" 1" viewBox="0 0 128 128"><circle cx="64" cy="64" r="60" fill="#fff"/><line x1="74.94" x2="85.54" y1="68.42" y2="72.81" fill="#ff8a65"/><path fill="#ff8a65" d="M79.7,66.06A15.84,15.84,0,1,0,64,79.74a16,16,0,0,0,2.89-.26,15.72,15.72,0,0,0,9.76-6L87.71,78l3.06-7.39Z"/><rect width="8" height="20.76" x="22.78" y="16.2" fill="#90caf9" transform="rotate(-45 26.779 26.578)"/><rect width="20.76" height="8" x="91.03" y="22.58" fill="#90caf9" transform="rotate(-45 101.408 26.575)"/><path fill="#90caf9" d="M64,0a64,64,0,1,0,64,64A64.07,64.07,0,0,0,64,0ZM27.35,106.29l9.6-9.6L31.3,91l-9.6,9.6A55.75,55.75,0,0,1,8.16,68H21.71V60H8.16A55.75,55.75,0,0,1,21.76,27.3l9.44,9.44,5.66-5.66-9.44-9.44A55.74,55.74,0,0,1,60.1,8.15V21.5h8V8.17A55.75,55.75,0,0,1,100.63,21.7l-9.39,9.39,5.66,5.66,9.39-9.39A55.75,55.75,0,0,1,119.84,60H106.49v8h13.36a55.61,55.61,0,0,1-2.68,13.59l-12.46-5.16-3.06,7.39L114.1,89a56.18,56.18,0,0,1-7.75,11.61L96.8,91l-5.66,5.66,9.55,9.55a55.83,55.83,0,0,1-73.35,0Z"/></svg>