<svg xmlns="http://www.w3.org/2000/svg" enable-background="new 0 0 1000 1000" viewBox="0 0 1000 1000"><rect width="1000" height="1000" fill="#114eff"/><path fill="#0c3a84" stroke="#0c3a84" stroke-linecap="round" stroke-linejoin="round" stroke-miterlimit="10" stroke-width="8" d="
			M356.76,450.086c-0.646-6.609-3.335-12.905-7.745-18.137l-21.529-25.537c-4.527-5.37-6.986-11.985-6.986-18.796v-14.444h-78.81
			v14.444c0,6.811-2.459,13.426-6.986,18.796l-21.529,25.537c-4.41,5.232-7.099,11.529-7.745,18.137l-22.657,254.136h196.643
			L356.76,450.086z"/><polygon fill="#0c3a84" stroke="#0c3a84" stroke-linecap="round" stroke-linejoin="round" stroke-miterlimit="10" stroke-width="8" points="385.422 748.619 176.769 748.619 172.817 693.028 389.373 693.028"/><path fill="#0c3a84" stroke="#0c3a84" stroke-linecap="round" stroke-linejoin="round" stroke-miterlimit="10" stroke-width="8" d="
			M335.442,373.172H226.749l3.262-27.493c1.531-12.906,11.686-22.705,23.148-22.705h55.873c11.462,0,21.617,9.799,23.148,22.705
			L335.442,373.172z"/><path fill="#f9b03a" d="M334.438,432.646c-0.646-6.609-3.335-12.905-7.745-18.137l-21.529-25.537
		c-4.527-5.37-6.986-11.985-6.986-18.796v-14.444h-78.81v14.444c0,6.811-2.459,13.426-6.986,18.796l-21.529,25.537
		c-4.41,5.232-7.099,11.529-7.745,18.137l-22.657,254.136h196.643L334.438,432.646z"/><path fill="#f9b03a" d="M357.533,686.782l-22.657-254.136
		c-0.646-6.609-3.335-12.905-7.745-18.137l-21.529-25.537c-4.527-5.37-6.986-11.985-6.986-18.796v-14.444h-33.769l-0.14,15.333
		c-0.074,8.125,2.793,15.994,8.135,22.363l25.228,30.076c5.131,6.119,8.191,13.464,8.821,21.149l13.523,155.279
		c2.81,32.268-13.067,57.117-44.32,65.626l-78.414,7.904l152.188,32.743l-5.135-19.424H357.533z" opacity=".4"/><path fill="#f9b03a" d="M211.093,444.653c0.63-7.686,3.69-15.03,8.821-21.149l25.228-30.076
		c5.342-6.369,8.209-14.237,8.135-22.363l-0.14-15.333h-33.769v14.444c0,6.811-2.459,13.426-6.986,18.796l-21.529,25.537
		c-4.41,5.232-7.099,11.529-7.745,18.137l-22.657,254.136l18.046,6.246L211.093,444.653z" opacity=".68"/><polygon fill="#ef3e1b" points="349.426 600.828 168.116 600.828 178.981 478.946 338.561 478.946"/><polygon fill="#ef3e1b" points="207.948 478.946 178.981 478.946 176.777 503.667 168.116 600.828 190.598 600.828" opacity=".69"/><polygon fill="#c6321a" points="310.037 478.946 339.004 478.946 341.208 503.667 349.869 600.828 321.215 600.828" opacity=".48"/><path fill="none" stroke="#030037" stroke-linecap="round" stroke-linejoin="round" stroke-miterlimit="10" stroke-width="8" d="
		M334.438,432.646c-0.646-6.609-3.335-12.905-7.745-18.137l-21.529-25.537c-4.527-5.37-6.986-11.985-6.986-18.796v-14.444h-78.81
		v14.444c0,6.811-2.459,13.426-6.986,18.796l-21.529,25.537c-4.41,5.232-7.099,11.529-7.745,18.137l-22.657,254.136h196.643
		L334.438,432.646z"/><polygon fill="#ff524e" points="363.1 731.179 154.447 731.179 150.495 675.588 367.051 675.588"/><polygon fill="#ff524e" points="150.495 675.588 154.447 731.179 173.447 731.179 169.495 675.588" opacity=".8"/><path fill="#ff524e" d="M286.67,718.803H154.447l-2.432-43.215h-1.52l3.952,55.591H363.1
		l3.952-55.591h-34.666v0C331.02,699.838,310.958,718.803,286.67,718.803z" opacity=".5"/><polygon fill="none" stroke="#030037" stroke-linecap="round" stroke-linejoin="round" stroke-miterlimit="10" stroke-width="8" points="363.1 731.179 154.447 731.179 150.495 675.588 367.051 675.588"/><path fill="#ff524e" d="M313.12,355.732H204.427l3.262-27.493c1.531-12.906,11.686-22.705,23.148-22.705
		h55.873c11.462,0,21.617,9.799,23.148,22.705L313.12,355.732z"/><path fill="#ff524e" d="M309.858,328.238c-1.531-12.906-11.686-22.705-23.148-22.705h-55.873
		c-11.462,0-21.617,9.799-23.148,22.705l-3.262,27.493h0.835l2.427-20.458c1.531-12.906,11.686-22.705,23.148-22.705h55.873
		c11.462,0,21.617,9.799,23.148,22.705l2.427,20.458h0.835L309.858,328.238z"/><path fill="#ff524e" d="M309.858,328.238c-1.531-12.906-11.686-22.705-23.148-22.705h-16.395
		c11.462,0,21.617,9.799,23.148,22.705l3.262,27.493h16.395L309.858,328.238z" opacity=".43"/><path fill="#ff524e" d="M246.7,305.534h-15.864c-11.462,0-21.617,9.799-23.148,22.705l-3.262,27.493h15.864
		l3.262-27.493C225.083,315.332,235.238,305.534,246.7,305.534z"/><path fill="none" stroke="#030037" stroke-linecap="round" stroke-linejoin="round" stroke-miterlimit="10" stroke-width="8" d="
		M313.12,355.732H204.427l3.262-27.493c1.531-12.906,11.686-22.705,23.148-22.705h55.873c11.462,0,21.617,9.799,23.148,22.705
		L313.12,355.732z"/><line x1="227.866" x2="227.866" y1="332.5" y2="355.732" fill="none" stroke="#030037" stroke-linecap="round" stroke-linejoin="round" stroke-miterlimit="10" stroke-width="8"/><line x1="248.471" x2="248.471" y1="332.5" y2="355.732" fill="none" stroke="#030037" stroke-linecap="round" stroke-linejoin="round" stroke-miterlimit="10" stroke-width="8"/><line x1="269.076" x2="269.076" y1="332.5" y2="355.732" fill="none" stroke="#030037" stroke-linecap="round" stroke-linejoin="round" stroke-miterlimit="10" stroke-width="8"/><line x1="289.68" x2="289.68" y1="332.5" y2="355.732" fill="none" stroke="#030037" stroke-linecap="round" stroke-linejoin="round" stroke-miterlimit="10" stroke-width="8"/><line x1="178.498" x2="181.067" y1="675.588" y2="731.179" fill="none" stroke="#030037" stroke-linecap="round" stroke-linejoin="round" stroke-miterlimit="10" stroke-width="8"/><line x1="205.256" x2="206.969" y1="675.588" y2="731.179" fill="none" stroke="#030037" stroke-linecap="round" stroke-linejoin="round" stroke-miterlimit="10" stroke-width="8"/><line x1="232.015" x2="232.871" y1="675.588" y2="731.179" fill="none" stroke="#030037" stroke-linecap="round" stroke-linejoin="round" stroke-miterlimit="10" stroke-width="8"/><line x1="258.773" x2="258.773" y1="675.588" y2="731.179" fill="none" stroke="#030037" stroke-linecap="round" stroke-linejoin="round" stroke-miterlimit="10" stroke-width="8"/><line x1="285.532" x2="284.675" y1="675.588" y2="731.179" fill="none" stroke="#030037" stroke-linecap="round" stroke-linejoin="round" stroke-miterlimit="10" stroke-width="8"/><line x1="312.29" x2="310.578" y1="675.588" y2="731.179" fill="none" stroke="#030037" stroke-linecap="round" stroke-linejoin="round" stroke-miterlimit="10" stroke-width="8"/><line x1="339.048" x2="336.48" y1="675.588" y2="731.179" fill="none" stroke="#030037" stroke-linecap="round" stroke-linejoin="round" stroke-miterlimit="10" stroke-width="8"/><g><line x1="184.815" x2="186.815" y1="425.012" y2="425.012" fill="none" stroke="#030037" stroke-linecap="round" stroke-linejoin="round" stroke-width="4"/><line x1="196.409" x2="325.935" y1="425.012" y2="425.012" fill="none" stroke="#030037" stroke-dasharray="3.838 9.595" stroke-linecap="round" stroke-linejoin="round" stroke-width="4"/><line x1="330.732" x2="332.732" y1="425.012" y2="425.012" fill="none" stroke="#030037" stroke-linecap="round" stroke-linejoin="round" stroke-width="4"/></g><polygon fill="none" stroke="#030037" stroke-linecap="round" stroke-linejoin="round" stroke-miterlimit="10" stroke-width="8" points="349.426 600.828 168.116 600.828 178.981 478.946 338.561 478.946"/><polygon fill="none" stroke="#030037" stroke-linecap="round" stroke-linejoin="round" stroke-miterlimit="10" stroke-width="8" points="350.882 617.094 166.659 617.094 168.116 600.828 349.426 600.828"/><path fill="#d9d9ff" d="M243.605,531.024l15.168-27.671l15.168,27.671
		c6.319,11.527-2.022,25.612-15.168,25.612h0C245.627,556.636,237.286,542.552,243.605,531.024z"/><path fill="none" stroke="#030037" stroke-linecap="round" stroke-linejoin="round" stroke-miterlimit="10" stroke-width="8" d="
		M243.605,531.024l15.168-27.671l15.168,27.671c6.319,11.527-2.022,25.612-15.168,25.612h0
		C245.627,556.636,237.286,542.552,243.605,531.024z"/><line x1="230.151" x2="289.68" y1="577.89" y2="577.89" fill="none" stroke="#030037" stroke-linecap="round" stroke-linejoin="round" stroke-miterlimit="10" stroke-width="8"/><g><path fill="#0c3a84" stroke="#0c3a84" stroke-linecap="round" stroke-linejoin="round" stroke-miterlimit="10" stroke-width="8" d="
			M834.188,415.833H552.136v-19.94l104.035-66.335h178.017c26.543,0,48.064,19.315,48.064,43.138
			c0,11.906-5.383,22.69-14.083,30.498C859.481,411.002,847.465,415.833,834.188,415.833z"/><path fill="#0c3a84" stroke="#0c3a84" stroke-linecap="round" stroke-linejoin="round" stroke-miterlimit="10" stroke-width="8" d="M834.188 415.833H659.751l-107.615-68.632v-17.643H663.74l214.113 61.169c-2.391 4.659-5.684 8.876-9.685 12.467C859.481 411.002 847.465 415.833 834.188 415.833zM479.762 259.612c-1.298.236-2.571.519-3.845.849C477.178 260.131 478.464 259.848 479.762 259.612zM468.52 262.962c1.18-.507 2.395-.967 3.621-1.38C470.915 262.006 469.712 262.466 468.52 262.962zM438.877 294.846c4.86-14.391 15.736-26.01 29.631-31.884C454.637 268.859 443.761 280.478 438.877 294.846zM438.877 328.876c.554 1.64 1.191 3.256 1.899 4.824C440.057 332.132 439.42 330.516 438.877 328.876zM468.508 360.772c-12.315-5.202-22.247-14.91-27.732-27.06C446.285 345.839 456.217 355.558 468.508 360.772z"/><path fill="#0c3a84" stroke="#0c3a84" stroke-linecap="round" stroke-linejoin="round" stroke-miterlimit="10" stroke-width="8" d="
					M594.659,301.029l-33.782-5.032c-11.826-1.762-22.712-7.747-30.153-17.106c-9.734-12.242-24.746-20.105-41.562-20.105
					c-3.208,0-6.346,0.283-9.401,0.826c-1.298,0.236-2.583,0.519-3.845,0.849c-0.425,0.106-0.861,0.212-1.286,0.342
					c-0.826,0.248-1.651,0.495-2.477,0.779c-0.012-0.012-0.012-0.012-0.012,0c-1.227,0.425-2.43,0.885-3.621,1.38
					c-0.012-0.012-0.012,0-0.012,0c-13.872,5.898-24.747,17.517-29.631,31.884c-0.012,0,0,0.012,0,0.012
					c-0.271,0.814-0.531,1.64-0.778,2.477c-0.118,0.425-0.236,0.849-0.342,1.286c-0.33,1.262-0.613,2.548-0.849,3.857
					c-0.543,3.043-0.826,6.181-0.826,9.389c0,3.208,0.283,6.346,0.826,9.401c0.236,1.297,0.519,2.583,0.849,3.857
					c0.106,0.425,0.224,0.849,0.342,1.274c0.248,0.838,0.495,1.663,0.778,2.477c0.554,1.64,1.191,3.256,1.899,4.824
					c-0.012,0.012-0.012,0.012,0,0.012c5.509,12.126,15.441,21.846,27.732,27.06c0,0,0,0.012,0.012,0
					c0.79,0.33,1.593,0.649,2.395,0.955c5.686,2.088,11.831,3.22,18.248,3.22h70.928l44.948-51.791L594.659,301.029z
					 M489.161,337.668c-14.247,0-25.796-11.549-25.796-25.796c0-14.247,11.549-25.796,25.796-25.796s25.796,11.549,25.796,25.796
					C514.957,326.119,503.408,337.668,489.161,337.668z"/><g><path fill="#0c3a84" stroke="#0c3a84" stroke-linecap="round" stroke-linejoin="round" stroke-miterlimit="10" stroke-width="8" d="M479.762 485.78c-1.298-.236-2.571-.519-3.845-.849C477.178 485.261 478.464 485.544 479.762 485.78zM468.52 482.43c1.18.507 2.395.967 3.621 1.38C470.915 483.385 469.712 482.925 468.52 482.43zM438.877 450.546c4.86 14.391 15.736 26.01 29.631 31.884C454.637 476.532 443.761 464.913 438.877 450.546zM438.877 416.515c.554-1.64 1.191-3.256 1.899-4.824C440.057 413.259 439.42 414.875 438.877 416.515zM468.508 384.619c-12.315 5.202-22.247 14.91-27.732 27.06C446.285 399.553 456.217 389.833 468.508 384.619z"/><path fill="#0c3a84" stroke="#0c3a84" stroke-linecap="round" stroke-linejoin="round" stroke-miterlimit="10" stroke-width="8" d="
					M560.091,380.444h-70.928c-6.417,0-12.563,1.132-18.248,3.22c-0.802,0.307-1.604,0.625-2.395,0.956
					c-0.012-0.012-0.012,0-0.012,0c-12.291,5.214-22.223,14.933-27.732,27.06c-0.012,0-0.012,0,0,0.012
					c-0.708,1.569-1.345,3.185-1.899,4.824c-0.283,0.814-0.531,1.64-0.778,2.477c-0.118,0.425-0.236,0.849-0.342,1.274
					c-0.33,1.274-0.613,2.56-0.849,3.857c-0.543,3.055-0.826,6.193-0.826,9.401c0,3.208,0.283,6.346,0.826,9.389
					c0.236,1.309,0.519,2.595,0.849,3.857c0.106,0.436,0.224,0.861,0.342,1.286c0.248,0.838,0.507,1.663,0.778,2.477
					c0,0-0.012,0.012,0,0.012c4.884,14.367,15.759,25.986,29.631,31.884c0,0,0,0.012,0.012,0c1.191,0.495,2.395,0.955,3.621,1.38
					c0,0.012,0,0.012,0.012,0c0.826,0.283,1.651,0.531,2.477,0.779c0.425,0.13,0.861,0.236,1.286,0.342
					c1.262,0.33,2.548,0.613,3.845,0.849c3.055,0.543,6.193,0.826,9.401,0.826c16.816,0,31.828-7.863,41.562-20.105
					c7.441-9.359,18.327-15.344,30.153-17.106l33.782-5.032l10.38-12.128L560.091,380.444z M489.161,459.315
					c-14.247,0-25.796-11.549-25.796-25.796s11.549-25.796,25.796-25.796s25.796,11.549,25.796,25.796
					S503.408,459.315,489.161,459.315z"/></g><circle cx="669.196" cy="372.696" r="10.299" fill="#0c3a84" stroke="#0c3a84" stroke-linecap="round" stroke-linejoin="round" stroke-miterlimit="10" stroke-width="8"/><g><path fill="#ffced2" d="M817.859,404.085H535.807v-19.94l104.035-66.335h178.017
			c26.543,0,48.064,19.315,48.064,43.138c0,11.906-5.383,22.69-14.083,30.498C843.153,399.254,831.137,404.085,817.859,404.085z"/><polygon fill="#ffced2" points="558.789 369.491 535.807 384.145 535.807 404.085 587.644 404.085" opacity=".2"/><path fill="#ffced2" d="M676.534,317.81h-36.692l-73.296,46.735l61.999,39.54h189.314
			c13.278,0,25.294-4.831,33.981-12.639c6.04-5.421,10.475-12.277,12.627-19.946L676.534,317.81z" opacity=".2"/><path fill="#ffced2" d="M851.84,380.147c-8.688,7.808-20.704,12.639-33.981,12.639H535.807
			v11.299h282.052c13.278,0,25.294-4.831,33.981-12.639c8.7-7.808,14.083-18.592,14.083-30.498c0-1.917-0.154-3.801-0.424-5.651
			C864.091,364.944,859.14,373.595,851.84,380.147z" opacity=".2"/><path fill="#ffced2" d="M817.859,317.81h-15.247c26.543,0,48.064,19.315,48.064,43.138
			c0,11.906-5.383,22.69-14.083,30.498c-8.688,7.808-20.704,12.639-33.981,12.639h15.247c13.278,0,25.294-4.831,33.981-12.639
			c8.7-7.808,14.083-18.592,14.083-30.498C865.923,337.125,844.402,317.81,817.859,317.81z" opacity=".2"/><path fill="none" stroke="#030037" stroke-linecap="round" stroke-linejoin="round" stroke-miterlimit="10" stroke-width="8" d="
			M817.859,404.085H535.807v-19.94l104.035-66.335h178.017c26.543,0,48.064,19.315,48.064,43.138
			c0,11.906-5.383,22.69-14.083,30.498C843.153,399.254,831.137,404.085,817.859,404.085z"/><path fill="#ffced2" d="M817.859,404.085H643.423l-107.615-68.632V317.81h111.605l214.113,61.169
			c-2.391,4.659-5.684,8.876-9.685,12.467C843.153,399.254,831.137,404.085,817.859,404.085z"/><path fill="#ffced2" d="M817.859,404.085H643.423l-107.615-68.632V317.81h111.605l214.113,61.169
			c-2.391,4.659-5.684,8.876-9.685,12.467C843.153,399.254,831.137,404.085,817.859,404.085z"/><polygon fill="#ffced2" points="588.402 317.81 535.807 317.81 535.807 335.453 559.69 350.685" opacity=".2"/><path fill="#ffced2" d="M848.514,375.262c-1.424,1.729-2.981,3.366-4.674,4.885
			c-8.688,7.808-20.704,12.639-33.981,12.639H635.423l-99.615-63.53v6.197l107.615,68.632h174.436
			c13.278,0,25.294-4.831,33.981-12.639c4.001-3.591,7.294-7.808,9.685-12.467L848.514,375.262z" opacity=".2"/><path fill="none" stroke="#030037" stroke-linecap="round" stroke-linejoin="round" stroke-miterlimit="10" stroke-width="8" d="M817.859 404.085H643.423l-107.615-68.632V317.81h111.605l214.113 61.169c-2.391 4.659-5.684 8.876-9.685 12.467C843.153 399.254 831.137 404.085 817.859 404.085zM463.433 247.864c-1.298.236-2.571.519-3.845.849C460.85 248.383 462.135 248.1 463.433 247.864zM452.192 251.214c1.18-.507 2.395-.967 3.621-1.38C454.586 250.258 453.383 250.718 452.192 251.214zM422.549 283.098c4.86-14.391 15.736-26.01 29.631-31.884C438.308 257.112 427.432 268.73 422.549 283.098zM422.549 317.128c.554 1.64 1.191 3.256 1.899 4.824C423.728 320.384 423.091 318.768 422.549 317.128zM452.18 349.024c-12.315-5.202-22.247-14.91-27.732-27.06C429.957 334.091 439.889 343.81 452.18 349.024zM463.433 474.032c-1.298-.236-2.571-.519-3.845-.849C460.85 473.513 462.135 473.796 463.433 474.032zM452.192 470.682c1.18.507 2.395.967 3.621 1.38C454.586 471.637 453.383 471.177 452.192 470.682zM422.549 438.798c4.86 14.391 15.736 26.01 29.631 31.884C438.308 464.784 427.432 453.165 422.549 438.798zM422.549 404.767c.554-1.64 1.191-3.256 1.899-4.824C423.728 401.512 423.091 403.128 422.549 404.767zM452.18 372.871c-12.315 5.202-22.247 14.91-27.732 27.06C429.957 387.805 439.889 378.085 452.18 372.871z"/><circle cx="652.868" cy="360.948" r="10.299" fill="#ff524e"/><circle cx="652.868" cy="360.948" r="10.299" fill="none" stroke="#030037" stroke-linecap="round" stroke-linejoin="round" stroke-miterlimit="10" stroke-width="8"/><path fill="#ff1d1d" d="M543.762,368.696h-70.928c-6.417,0-12.562,1.132-18.248,3.22
			c-0.802,0.307-1.604,0.625-2.395,0.956c-0.012-0.012-0.012,0-0.012,0c-12.291,5.214-22.223,14.933-27.732,27.06
			c-0.012,0-0.012,0,0,0.012c-0.708,1.569-1.345,3.185-1.899,4.824c-0.283,0.814-0.531,1.64-0.778,2.477
			c-0.118,0.425-0.236,0.849-0.342,1.274c-0.33,1.274-0.613,2.56-0.849,3.857c-0.543,3.055-0.826,6.193-0.826,9.401
			c0,3.208,0.283,6.346,0.826,9.389c0.236,1.309,0.519,2.595,0.849,3.857c0.106,0.436,0.224,0.861,0.342,1.286
			c0.248,0.838,0.507,1.663,0.778,2.477c0,0-0.012,0.012,0,0.012c4.883,14.367,15.759,25.986,29.631,31.884c0,0,0,0.012,0.012,0
			c1.191,0.495,2.395,0.955,3.621,1.38c0,0.012,0,0.012,0.012,0c0.826,0.283,1.651,0.531,2.477,0.779
			c0.425,0.13,0.861,0.236,1.286,0.342c1.262,0.33,2.548,0.613,3.845,0.849c3.055,0.543,6.193,0.826,9.401,0.826
			c16.816,0,31.828-7.863,41.562-20.105c7.441-9.359,18.327-15.344,30.153-17.106l33.782-5.032l10.38-12.128L543.762,368.696z
			 M472.833,447.567c-14.247,0-25.796-11.549-25.796-25.796s11.549-25.796,25.796-25.796c14.247,0,25.796,11.549,25.796,25.796
			S487.08,447.567,472.833,447.567z"/><g opacity=".22"><path fill="#ff1d1d" d="M447.037 421.771c0-11.625 7.691-21.451 18.261-24.675-2.384-.727-4.913-1.121-7.535-1.121-14.247 0-25.796 11.549-25.796 25.796s11.549 25.796 25.796 25.796c2.622 0 5.151-.394 7.535-1.121C454.728 443.222 447.037 433.396 447.037 421.771zM543.762 368.696h-15.071l44.948 51.791-10.38 12.128-33.782 5.032c-11.826 1.762-22.712 7.747-30.153 17.106-8.265 10.395-20.342 17.611-34.091 19.559 2.484.354 5.018.546 7.599.546 16.816 0 31.828-7.863 41.562-20.105 7.441-9.359 18.327-15.344 30.153-17.106l33.782-5.032 10.38-12.128L543.762 368.696z"/></g><path fill="#ff1d1d" d="M507.354,425.771c0-12.115-8.353-22.274-19.612-25.045
				c6.585,4.674,10.887,12.354,10.887,21.045c0,14.247-11.549,25.796-25.796,25.796c-2.132,0-4.202-0.264-6.184-0.751
				c4.211,2.989,9.353,4.751,14.909,4.751C495.805,451.567,507.354,440.018,507.354,425.771z"/><path fill="#ff1d1d" d="M431.274,442.798c-0.012,0,0-0.012,0-0.012c-0.271-0.814-0.531-1.64-0.778-2.477
				c-0.118-0.425-0.236-0.849-0.342-1.286c-0.33-1.262-0.613-2.548-0.849-3.857c-0.543-3.043-0.826-6.181-0.826-9.389
				c0-3.208,0.283-6.346,0.826-9.401c0.236-1.298,0.519-2.583,0.849-3.857c0.106-0.425,0.224-0.849,0.342-1.274
				c0.248-0.838,0.495-1.663,0.778-2.477c0.554-1.64,1.191-3.256,1.899-4.824c-0.012-0.012-0.012-0.012,0-0.012
				c5.509-12.126,15.441-21.846,27.732-27.06c0,0,0-0.012,0.012,0c0.79-0.33,1.592-0.649,2.395-0.956
				c5.686-2.088,11.831-3.22,18.248-3.22h65.674l-3.472-4h-70.928c-6.417,0-12.562,1.132-18.248,3.22
				c-0.802,0.307-1.604,0.625-2.395,0.956c-0.012-0.012-0.012,0-0.012,0c-12.291,5.214-22.223,14.933-27.732,27.06
				c-0.012,0-0.012,0,0,0.012c-0.708,1.569-1.345,3.185-1.899,4.824c-0.283,0.814-0.531,1.64-0.778,2.477
				c-0.118,0.425-0.236,0.849-0.342,1.274c-0.33,1.274-0.613,2.56-0.849,3.857c-0.543,3.055-0.826,6.193-0.826,9.401
				c0,3.208,0.283,6.346,0.826,9.389c0.236,1.309,0.519,2.595,0.849,3.857c0.106,0.436,0.224,0.861,0.342,1.286
				c0.248,0.838,0.507,1.663,0.778,2.477c0,0-0.012,0.012,0,0.012c4.883,14.367,15.759,25.986,29.631,31.884c0,0,0,0.012,0.012,0
				c0.998,0.415,2.011,0.79,3.032,1.156C444.089,465.436,435.468,455.136,431.274,442.798z"/><path fill="none" stroke="#030037" stroke-linecap="round" stroke-linejoin="round" stroke-miterlimit="10" stroke-width="8" d="
			M543.762,368.696h-70.928c-6.417,0-12.562,1.132-18.248,3.22c-0.802,0.307-1.604,0.625-2.395,0.956c-0.012-0.012-0.012,0-0.012,0
			c-12.291,5.214-22.223,14.933-27.732,27.06c-0.012,0-0.012,0,0,0.012c-0.708,1.569-1.345,3.185-1.899,4.824
			c-0.283,0.814-0.531,1.64-0.778,2.477c-0.118,0.425-0.236,0.849-0.342,1.274c-0.33,1.274-0.613,2.56-0.849,3.857
			c-0.543,3.055-0.826,6.193-0.826,9.401c0,3.208,0.283,6.346,0.826,9.389c0.236,1.309,0.519,2.595,0.849,3.857
			c0.106,0.436,0.224,0.861,0.342,1.286c0.248,0.838,0.507,1.663,0.778,2.477c0,0-0.012,0.012,0,0.012
			c4.883,14.367,15.759,25.986,29.631,31.884c0,0,0,0.012,0.012,0c1.191,0.495,2.395,0.955,3.621,1.38c0,0.012,0,0.012,0.012,0
			c0.826,0.283,1.651,0.531,2.477,0.779c0.425,0.13,3.834,0.956,5.131,1.191c3.055,0.543,6.193,0.826,9.401,0.826
			c16.816,0,31.828-7.863,41.562-20.105c7.441-9.359,18.327-15.344,30.153-17.106l33.782-5.032l10.38-12.128L543.762,368.696z
			 M472.833,447.567c-14.247,0-25.796-11.549-25.796-25.796s11.549-25.796,25.796-25.796c14.247,0,25.796,11.549,25.796,25.796
			S487.08,447.567,472.833,447.567z"/><path fill="#ff1d1d" d="M578.331,289.281l-33.782-5.032c-11.826-1.762-22.712-7.747-30.153-17.106
			c-9.734-12.242-24.746-20.105-41.562-20.105c-3.208,0-6.346,0.283-9.401,0.826c-1.298,0.236-2.583,0.519-3.845,0.849
			c-0.425,0.106-0.861,0.212-1.286,0.342c-0.826,0.248-1.651,0.495-2.477,0.779c-0.012-0.012-0.012-0.012-0.012,0
			c-1.227,0.425-2.43,0.885-3.621,1.38c-0.012-0.012-0.012,0-0.012,0c-13.872,5.898-24.747,17.517-29.631,31.884
			c-0.012,0,0,0.012,0,0.012c-0.271,0.814-0.531,1.64-0.778,2.477c-0.118,0.425-0.236,0.849-0.342,1.286
			c-0.33,1.262-0.613,2.548-0.849,3.857c-0.543,3.043-0.826,6.181-0.826,9.389c0,3.208,0.283,6.346,0.826,9.401
			c0.236,1.297,0.519,2.583,0.849,3.857c0.106,0.425,0.224,0.849,0.342,1.274c0.248,0.838,0.495,1.663,0.778,2.477
			c0.554,1.64,1.191,3.256,1.899,4.824c-0.012,0.012-0.012,0.012,0,0.012c5.509,12.126,15.441,21.846,27.732,27.06
			c0,0,0,0.012,0.012,0c0.79,0.33,1.592,0.649,2.395,0.955c5.686,2.088,11.831,3.22,18.248,3.22h70.928l44.948-51.791
			L578.331,289.281z M472.833,325.92c-14.247,0-25.796-11.549-25.796-25.796c0-14.247,11.549-25.796,25.796-25.796
			c14.247,0,25.796,11.549,25.796,25.796C498.629,314.371,487.08,325.92,472.833,325.92z"/><g opacity=".22"><path fill="#ff1d1d" d="M578.331,289.281l-33.782-5.032c-11.826-1.762-22.712-7.747-30.153-17.106
				c-9.734-12.242-24.746-20.105-41.562-20.105c-0.015,0-0.029,0.001-0.043,0.001c11.462,2.888,21.459,9.5,28.605,18.488
				c7.441,9.359,18.327,15.344,30.153,17.106l33.782,5.032l10.38,12.128l-44.948,51.791h-70.928c-0.003,0-0.007,0-0.01,0
				c4.162,1.049,8.517,1.616,13.01,1.616h70.928l44.948-51.791L578.331,289.281z"/><path fill="#ff1d1d" d="M469.418,274.56c-2.964-1.188-6.197-1.848-9.586-1.848
				c-14.247,0-25.796,11.549-25.796,25.796c0,14.247,11.549,25.796,25.796,25.796c1.158,0,2.296-0.084,3.414-0.232
				c-9.498-3.806-16.21-13.09-16.21-23.948C447.037,287.036,456.787,276.232,469.418,274.56z"/></g><path fill="#ff1d1d" d="M509.354 305.539c0-12.203-8.477-22.42-19.861-25.102 5.586 4.732 9.135 11.793 9.135 19.687 0 14.247-11.549 25.796-25.796 25.796-2.044 0-4.029-.245-5.935-.694 4.495 3.808 10.308 6.109 16.661 6.109C497.805 331.335 509.354 319.786 509.354 305.539zM555.275 289.664l26.8 3.992-3.744-4.375-33.782-5.032c-3.177-.473-6.283-1.261-9.276-2.328C541.215 285.94 548.067 288.59 555.275 289.664z"/><path fill="#ff1d1d" d="M435.173,327.379c-0.012,0-0.012,0,0-0.012c-0.708-1.569-1.345-3.185-1.899-4.824
				c-0.283-0.814-0.531-1.64-0.778-2.477c-0.118-0.425-0.236-0.849-0.342-1.274c-0.33-1.274-0.613-2.56-0.849-3.857
				c-0.543-3.055-0.826-6.193-0.826-9.401c0-3.208,0.283-6.346,0.826-9.389c0.236-1.309,0.519-2.595,0.849-3.857
				c0.106-0.436,0.224-0.861,0.342-1.286c0.248-0.838,0.507-1.663,0.778-2.477c0,0-0.012-0.012,0-0.012
				c4.883-14.367,15.759-25.986,29.631-31.884c0,0,0-0.012,0.012,0c1.191-0.495,2.395-0.955,3.621-1.38c0-0.012,0-0.012,0.012,0
				c0.826-0.283,1.651-0.531,2.477-0.779c0.425-0.13,0.861-0.236,1.286-0.342c1.262-0.33,2.548-0.613,3.845-0.849
				c3.055-0.543,6.193-0.826,9.401-0.826c6.431,0,12.595,1.158,18.304,3.263c-8.349-5.479-18.319-8.678-29.029-8.678
				c-3.208,0-6.346,0.283-9.401,0.826c-1.298,0.236-2.583,0.519-3.845,0.849c-0.425,0.106-0.861,0.212-1.286,0.342
				c-0.826,0.248-1.651,0.495-2.477,0.779c-0.012-0.012-0.012-0.012-0.012,0c-1.227,0.425-2.43,0.885-3.621,1.38
				c-0.012-0.012-0.012,0-0.012,0c-13.872,5.898-24.747,17.517-29.631,31.884c-0.012,0,0,0.012,0,0.012
				c-0.271,0.814-0.531,1.64-0.778,2.477c-0.118,0.425-0.236,0.849-0.342,1.286c-0.33,1.262-0.613,2.548-0.849,3.857
				c-0.543,3.043-0.826,6.181-0.826,9.389c0,3.208,0.283,6.346,0.826,9.401c0.236,1.297,0.519,2.583,0.849,3.857
				c0.106,0.425,0.224,0.849,0.342,1.274c0.248,0.838,0.495,1.663,0.778,2.477c0.554,1.64,1.191,3.256,1.899,4.824
				c-0.012,0.012-0.012,0.012,0,0.012c5.509,12.126,15.441,21.846,27.732,27.06c0,0,0,0.012,0.012,0
				c0.781,0.326,1.574,0.641,2.367,0.944C446.14,344.452,439.37,336.618,435.173,327.379z"/><path fill="none" stroke="#030037" stroke-linecap="round" stroke-linejoin="round" stroke-miterlimit="10" stroke-width="8" d="
			M578.331,289.281l-33.782-5.032c-11.826-1.762-22.712-7.747-30.153-17.106c-9.734-12.242-24.746-20.105-41.562-20.105
			c-3.208,0-6.346,0.283-9.401,0.826c-1.298,0.236-2.583,0.519-3.845,0.849c-0.425,0.106-0.861,0.212-1.286,0.342
			c-0.826,0.248-1.651,0.495-2.477,0.779c-0.012-0.012-0.012-0.012-0.012,0c-1.227,0.425-2.43,0.885-3.621,1.38
			c-0.012-0.012-0.012,0-0.012,0c-13.872,5.898-24.747,17.517-29.631,31.884c-0.012,0,0,0.012,0,0.012
			c-0.271,0.814-0.531,1.64-0.778,2.477c-0.118,0.425-0.236,0.849-0.342,1.286c-0.33,1.262-0.613,2.548-0.849,3.857
			c-0.543,3.043-0.826,6.181-0.826,9.389c0,3.208,0.283,6.346,0.826,9.401c0.236,1.297,0.519,2.583,0.849,3.857
			c0.106,0.425,0.224,0.849,0.342,1.274c0.248,0.838,0.495,1.663,0.778,2.477c0.554,1.64,1.191,3.256,1.899,4.824
			c-0.012,0.012-0.012,0.012,0,0.012c5.509,12.126,15.441,21.846,27.732,27.06c0,0,0,0.012,0.012,0
			c0.79,0.33,1.592,0.649,2.395,0.955c5.686,2.088,11.831,3.22,18.248,3.22h70.928l44.948-51.791L578.331,289.281z M472.833,325.92
			c-14.247,0-25.796-11.549-25.796-25.796c0-14.247,11.549-25.796,25.796-25.796c14.247,0,25.796,11.549,25.796,25.796
			C498.629,314.371,487.08,325.92,472.833,325.92z"/></g></g><g><rect width="306.657" height="46.876" x="550.795" y="690.018" fill="#0c3a84" stroke="#0c3a84" stroke-linecap="round" stroke-linejoin="round" stroke-miterlimit="10" stroke-width="8"/><path fill="#0c3a84" stroke="#0c3a84" stroke-linecap="round" stroke-linejoin="round" stroke-miterlimit="10" stroke-width="8" d="
			M797.161,529.555L549.07,709.803l-17.443-24.008c-13.744-18.917-9.55-45.393,9.366-59.137l213.839-155.363L797.161,529.555z"/><rect width="255.932" height="30.967" x="576.157" y="659.051" fill="#0c3a84" stroke="#0c3a84" stroke-linecap="round" stroke-linejoin="round" stroke-miterlimit="10" stroke-width="8"/><polygon fill="#0c3a84" stroke="#0c3a84" stroke-linecap="round" stroke-linejoin="round" stroke-miterlimit="10" stroke-width="8" points="767.16 551.351 781.025 584.04 618.924 659.051 657.893 590.549"/><circle cx="587.252" cy="674.535" r="31.672" fill="#0c3a84" stroke="#0c3a84" stroke-linecap="round" stroke-linejoin="round" stroke-miterlimit="10" stroke-width="8"/><circle cx="587.252" cy="674.535" r="16.595" fill="#0c3a84" stroke="#0c3a84" stroke-linecap="round" stroke-linejoin="round" stroke-miterlimit="10" stroke-width="8"/><g><rect width="306.657" height="46.876" x="531.489" y="673.463" fill="#ffced2"/><rect width="306.657" height="14.133" x="531.489" y="706.206" fill="#d8b2b6" opacity=".2"/><polygon fill="#d8b2b6" points="747.854 534.797 761.719 567.485 599.617 642.497 638.586 573.994"/><polygon fill="none" stroke="#030037" stroke-linecap="round" stroke-linejoin="round" stroke-miterlimit="10" stroke-width="8" points="747.854 534.797 761.719 567.485 599.617 642.497 638.586 573.994"/><rect width="306.657" height="46.876" x="531.489" y="673.463" fill="none" stroke="#030037" stroke-linecap="round" stroke-linejoin="round" stroke-miterlimit="10" stroke-width="8"/><path fill="#38ad3d" d="M777.854,513l-248.09,180.248l-17.443-24.008
			c-13.744-18.917-9.55-45.393,9.366-59.137L735.526,454.74L777.854,513z"/><path fill="#38ad3d" d="M526.321,673.136c-13.744-18.917-9.55-45.393,9.366-59.137
			l203.332-154.451l-3.493-4.808L521.687,610.103c-18.917,13.744-23.11,40.22-9.366,59.137l17.443,24.008l7.311-5.311
			L526.321,673.136z" opacity=".84"/><polygon fill="#38ad3d" points="735.526 454.74 721.049 465.258 755.735 513 522.122 682.73 529.764 693.248 777.854 513" opacity=".6"/><path fill="none" stroke="#030037" stroke-linecap="round" stroke-linejoin="round" stroke-miterlimit="10" stroke-width="8" d="
			M777.854,513l-248.09,180.248l-17.443-24.008c-13.744-18.917-9.55-45.393,9.366-59.137L735.526,454.74L777.854,513z"/><rect width="255.932" height="30.967" x="556.851" y="642.497" fill="#d8b2b6"/><rect width="255.932" height="14.412" x="556.851" y="659.051" fill="#d8b2b6" opacity=".2"/><rect width="255.932" height="30.967" x="556.851" y="642.497" fill="none" stroke="#030037" stroke-linecap="round" stroke-linejoin="round" stroke-miterlimit="10" stroke-width="8"/><circle cx="567.946" cy="657.98" r="31.672" fill="#d8b2b6"/><circle cx="567.946" cy="657.98" r="31.672" fill="none" stroke="#030037" stroke-linecap="round" stroke-linejoin="round" stroke-miterlimit="10" stroke-width="8"/><circle cx="567.946" cy="657.98" r="16.595" fill="#247c1a"/><circle cx="567.946" cy="657.98" r="16.595" fill="none" stroke="#030037" stroke-linecap="round" stroke-linejoin="round" stroke-miterlimit="10" stroke-width="8"/></g></g></svg>