<svg xmlns="http://www.w3.org/2000/svg" enable-background="new 0 0 1000 1000" viewBox="0 0 1000 1000"><rect width="1000" height="1000" fill="#ff1f1f"/><line x1="153.612" x2="321.175" y1="532.024" y2="532.024" fill="#cb0000" stroke="#cb0000" stroke-linecap="round" stroke-linejoin="round" stroke-miterlimit="10" stroke-width="8"/><path fill="#cb0000" stroke="#cb0000" stroke-linecap="round" stroke-linejoin="round" stroke-miterlimit="10" stroke-width="8" d="
		M242.365,552.381h-10.218c-2.378,0-4.306-1.928-4.306-4.306v-30.71c0-2.378,1.928-4.306,4.306-4.306h10.218
		c2.378,0,4.306,1.928,4.306,4.306v30.71C246.671,550.453,244.743,552.381,242.365,552.381z"/><line x1="340.196" x2="350.803" y1="708.55" y2="737.694" fill="#cb0000" stroke="#cb0000" stroke-linecap="round" stroke-linejoin="round" stroke-miterlimit="10" stroke-width="8"/><polygon fill="#cb0000" stroke="#cb0000" stroke-linecap="round" stroke-linejoin="round" stroke-miterlimit="10" stroke-width="8" points="329.696 640.84 310.961 647.659 230.646 426.997 259.79 416.389 312.204 560.394"/><rect width="13.292" height="35.445" x="326.885" y="672.516" fill="#cb0000" stroke="#cb0000" stroke-linecap="round" stroke-linejoin="round" stroke-miterlimit="10" stroke-width="8" transform="rotate(-19.999 333.559 690.277)"/><circle cx="326.175" cy="657.073" r="19.938" fill="#cb0000" stroke="#cb0000" stroke-linecap="round" stroke-linejoin="round" stroke-miterlimit="10" stroke-width="8"/><polygon fill="#cb0000" stroke="#cb0000" stroke-linecap="round" stroke-linejoin="round" stroke-miterlimit="10" stroke-width="8" points="145.148 640.84 163.884 647.659 244.198 426.997 215.054 416.389 162.641 560.394"/><rect width="13.292" height="35.445" x="134.667" y="672.516" fill="#cb0000" stroke="#cb0000" stroke-linecap="round" stroke-linejoin="round" stroke-miterlimit="10" stroke-width="8" transform="rotate(-160.001 141.306 690.24)"/><line x1="134.649" x2="124.041" y1="708.55" y2="737.694" fill="#cb0000" stroke="#cb0000" stroke-linecap="round" stroke-linejoin="round" stroke-miterlimit="10" stroke-width="8"/><circle cx="148.67" cy="657.073" r="19.938" fill="#cb0000" stroke="#cb0000" stroke-linecap="round" stroke-linejoin="round" stroke-miterlimit="10" stroke-width="8"/><path fill="#cb0000" stroke="#cb0000" stroke-linecap="round" stroke-linejoin="round" stroke-miterlimit="10" stroke-width="8" d="
		M252.911,478.168c-10.326,0-20.652,0-30.978,0c-5.017,0-9.815-3.754-11.05-8.762c-5.518-23.154-9.318-46.697-8.903-69.876
		c0.162-5.918,5.86-11.083,11.757-11.083c15.79,0,31.579,0,47.369,0c5.897,0,11.595,5.165,11.757,11.083
		c0.415,23.179-3.384,46.722-8.903,69.876C262.726,474.414,257.928,478.168,252.911,478.168z"/><rect width="35.445" height="78.644" x="219.349" y="294.296" fill="#cb0000" stroke="#cb0000" stroke-linecap="round" stroke-linejoin="round" stroke-miterlimit="10" stroke-width="8"/><rect width="18.83" height="15.507" x="227.656" y="372.94" fill="#cb0000" stroke="#cb0000" stroke-linecap="round" stroke-linejoin="round" stroke-miterlimit="10" stroke-width="8"/><g><path fill="#cb0000" stroke="#cb0000" stroke-linecap="round" stroke-linejoin="round" stroke-miterlimit="10" stroke-width="8" d="
		M596.87,403.418c-54.17,0-132.126,0-186.296,0c-14.508,0-27.308,9.541-31.224,23.399c-4.933,17.456-4.933,35.652,0,53.107
		c3.916,13.858,16.716,23.399,31.224,23.399H596.87c8.156,0,14.9-6.282,15.447-14.354c1.606-23.706,1.606-47.492,0-71.197
		C611.77,409.699,605.026,403.418,596.87,403.418z"/><path fill="#cb0000" stroke="#cb0000" stroke-linecap="round" stroke-linejoin="round" stroke-miterlimit="10" stroke-width="8" d="
		M478.957,484.807c-3.962-20.77-3.962-42.102,0-62.872c73.74,0,173.646,0,247.386,0c0,14.428-3.224,37.872-11.811,54.317
		c-2.755,5.275-8.239,8.556-14.19,8.556H478.957z"/><rect width="18.734" height="17.888" x="613.478" y="476.688" fill="#cb0000" stroke="#cb0000" stroke-linecap="round" stroke-linejoin="round" stroke-miterlimit="10" stroke-width="8" transform="rotate(90 622.845 485.631)"/></g><rect width="18.734" height="17.888" x="613.478" y="417.448" fill="#cb0000" stroke="#cb0000" stroke-linecap="round" stroke-linejoin="round" stroke-miterlimit="10" stroke-width="8" transform="rotate(90 622.845 426.392)"/><g><line x1="143.612" x2="311.175" y1="527.024" y2="527.024" fill="none" stroke="#340600" stroke-linecap="round" stroke-linejoin="round" stroke-miterlimit="10" stroke-width="8"/><path fill="#bfbfbf" d="M232.365,547.381h-10.218c-2.378,0-4.306-1.928-4.306-4.306v-30.71
		c0-2.378,1.928-4.306,4.306-4.306h10.218c2.378,0,4.306,1.928,4.306,4.306v30.71C236.671,545.453,234.743,547.381,232.365,547.381z
		"/><path fill="#fff" d="M219.742,508.793c-1.147,0.774-1.901,2.085-1.901,3.572v30.71
		c0,1.487,0.754,2.798,1.901,3.572c3.241-2.892,5.551-10.264,5.551-18.927C225.292,519.057,222.983,511.685,219.742,508.793z"/><path fill="none" stroke="#340600" stroke-linecap="round" stroke-linejoin="round" stroke-miterlimit="10" stroke-width="6" d="
		M232.365,547.381h-10.218c-2.378,0-4.306-1.928-4.306-4.306v-30.71c0-2.378,1.928-4.306,4.306-4.306h10.218
		c2.378,0,4.306,1.928,4.306,4.306v30.71C236.671,545.453,234.743,547.381,232.365,547.381z"/><polygon fill="#fff" points="319.696 635.84 300.961 642.659 220.646 421.997 249.79 411.389 302.204 555.394"/><polygon fill="#bfbfbf" points="302.204 555.394 249.79 411.389 241.843 414.282 293.204 555.394 310.696 635.84 299.908 639.767 300.961 642.659 319.696 635.84"/><path fill="#bfbfbf" d="M250.79,410.389l-29.144,10.608l22.623,62.155
		c9.999-0.168,18.954-7.306,21.392-17.195c0.734-3.079,1.415-6.09,2.058-9.055L250.79,410.389z"/><line x1="330.196" x2="340.803" y1="703.55" y2="732.694" fill="none" stroke="#340600" stroke-linecap="round" stroke-linejoin="round" stroke-miterlimit="10" stroke-width="8"/><rect width="13.292" height="35.445" x="316.885" y="667.516" fill="#bfbfbf" transform="rotate(-19.999 323.558 685.277)"/><polygon fill="none" stroke="#340600" stroke-linecap="round" stroke-linejoin="round" stroke-miterlimit="10" stroke-width="8" points="319.696 635.84 300.961 642.659 220.646 421.997 249.79 411.389 302.204 555.394"/><rect width="13.292" height="35.445" x="316.885" y="667.516" fill="none" stroke="#340600" stroke-linecap="round" stroke-linejoin="round" stroke-miterlimit="10" stroke-width="8" transform="rotate(-19.999 323.558 685.277)"/><circle cx="316.175" cy="652.073" r="19.938" fill="#fff"/><path fill="#bfbfbf" d="M321.328,643.867c-10.347,3.766-15.682,15.207-11.916,25.555
		c0.203,0.557,0.438,1.093,0.684,1.62c4.066,1.306,8.574,1.34,12.898-0.233c10.347-3.766,15.682-15.207,11.916-25.555
		c-0.203-0.557-0.438-1.093-0.684-1.62C330.16,642.327,325.651,642.293,321.328,643.867z"/><circle cx="316.175" cy="652.073" r="19.938" fill="none" stroke="#340600" stroke-linecap="round" stroke-linejoin="round" stroke-miterlimit="10" stroke-width="8"/><polygon fill="#fff" points="135.148 635.84 153.884 642.659 234.198 421.997 205.054 411.389 152.641 555.394"/><polygon fill="#fff" points="135.148 635.84 153.884 642.659 234.198 421.997 205.054 411.389 152.641 555.394"/><polygon fill="#bfbfbf" points="205.054 411.389 204.001 414.282 225.198 421.997 145.936 639.767 153.884 642.659 234.198 421.997"/><path fill="#bfbfbf" d="M207.054,410.389L190.125,456.9c0.649,2.992,1.337,6.031,2.078,9.14
		c2.418,9.807,11.373,16.944,21.372,17.112l22.623-62.155L207.054,410.389z"/><polygon fill="none" stroke="#340600" stroke-linecap="round" stroke-linejoin="round" stroke-miterlimit="10" stroke-width="8" points="135.148 635.84 153.884 642.659 234.198 421.997 205.054 411.389 152.641 555.394"/><rect width="13.292" height="35.445" x="124.667" y="667.516" fill="#bfbfbf" transform="rotate(-160.001 131.306 685.239)"/><rect width="13.292" height="35.445" x="124.667" y="667.516" fill="none" stroke="#340600" stroke-linecap="round" stroke-linejoin="round" stroke-miterlimit="10" stroke-width="8" transform="rotate(-160.001 131.306 685.239)"/><line x1="124.649" x2="114.041" y1="703.55" y2="732.694" fill="none" stroke="#340600" stroke-linecap="round" stroke-linejoin="round" stroke-miterlimit="10" stroke-width="8"/><circle cx="138.67" cy="652.073" r="19.938" fill="#fff"/><circle cx="138.67" cy="652.073" r="19.938" fill="#fff"/><path fill="#bfbfbf" d="M157.405,658.892c1.883-5.175,1.491-10.623-0.667-15.248
		c-10.153-3.269-21.153,2.031-24.832,12.139c-1.883,5.175-1.49,10.623,0.667,15.248C142.726,674.3,153.726,669,157.405,658.892z"/><circle cx="138.67" cy="652.073" r="19.938" fill="none" stroke="#340600" stroke-linecap="round" stroke-linejoin="round" stroke-miterlimit="10" stroke-width="8"/><path fill="#bfbfbf" d="M242.911,473.168c-10.326,0-20.652,0-30.978,0c-5.017,0-9.815-3.754-11.05-8.762
		c-5.518-23.154-9.318-46.697-8.903-69.876c0.162-5.918,5.86-11.083,11.757-11.083c15.79,0,31.579,0,47.369,0
		c5.897,0,11.595,5.165,11.757,11.083c0.415,23.179-3.384,46.722-8.903,69.876C252.726,469.414,247.928,473.168,242.911,473.168z"/><path fill="#fff" d="M200.496,464.406c-5.518-23.154-9.318-46.697-8.903-69.876
		c0.163-5.918,5.86-11.083,11.757-11.083c11.266,0,22.532,0,33.799,0c2.74,12.428,2.709,25.775-0.664,39.104
		c-5.103,20.169-11.695,47.767-32.288,47.767C202.42,468.783,201.071,466.734,200.496,464.406z"/><path fill="none" stroke="#340600" stroke-linecap="round" stroke-linejoin="round" stroke-miterlimit="10" stroke-width="8" d="
		M242.911,473.168c-10.326,0-20.652,0-30.978,0c-5.017,0-9.815-3.754-11.05-8.762c-5.518-23.154-9.318-46.697-8.903-69.876
		c0.162-5.918,5.86-11.083,11.757-11.083c15.79,0,31.579,0,47.369,0c5.897,0,11.595,5.165,11.757,11.083
		c0.415,23.179-3.384,46.722-8.903,69.876C252.726,469.414,247.928,473.168,242.911,473.168z"/><rect width="35.445" height="78.644" x="209.349" y="289.296" fill="#bfbfbf"/><rect width="10" height="78.644" x="209.349" y="289.296" fill="#bfbfbf"/><rect width="12.46" height="78.644" x="232.333" y="289.296" fill="#bfbfbf"/><rect width="35.445" height="78.644" x="209.349" y="289.296" fill="none" stroke="#340600" stroke-linecap="round" stroke-linejoin="round" stroke-miterlimit="10" stroke-width="8"/><rect width="18.83" height="15.507" x="217.656" y="367.94" fill="#606060"/><rect width="18.83" height="15.507" x="217.656" y="367.94" fill="none" stroke="#340600" stroke-linecap="round" stroke-linejoin="round" stroke-miterlimit="10" stroke-width="8"/><line x1="220.646" x2="220.646" y1="303.326" y2="348.74" fill="none" stroke="#340600" stroke-linecap="round" stroke-linejoin="round" stroke-miterlimit="10" stroke-width="6"/><circle cx="228.894" cy="428.05" r="10.5" fill="#606060"/><circle cx="228.894" cy="428.05" r="10.5" fill="none" stroke="#340600" stroke-linecap="round" stroke-linejoin="round" stroke-miterlimit="10" stroke-width="8"/></g><g><path fill="#1d4928" d="M591.87,391.418c-54.17,0-132.126,0-186.296,0
		c-14.508,0-27.308,9.541-31.224,23.399c-4.933,17.456-4.933,35.652,0,53.107c3.916,13.858,16.716,23.399,31.224,23.399H591.87
		c8.156,0,14.9-6.282,15.447-14.354c1.606-23.706,1.606-47.492,0-71.197C606.77,397.699,600.026,391.418,591.87,391.418z"/><path fill="none" stroke="#340600" stroke-linecap="round" stroke-linejoin="round" stroke-miterlimit="10" stroke-width="8" d="
		M591.87,391.418c-54.17,0-132.126,0-186.296,0c-14.508,0-27.308,9.541-31.224,23.399c-4.933,17.456-4.933,35.652,0,53.107
		c3.916,13.858,16.716,23.399,31.224,23.399H591.87c8.156,0,14.9-6.282,15.447-14.354c1.606-23.706,1.606-47.492,0-71.197
		C606.77,397.699,600.026,391.418,591.87,391.418z"/><path fill="none" stroke="#340600" stroke-linecap="round" stroke-linejoin="round" stroke-miterlimit="10" stroke-width="8" d="
		M591.87,391.418c-54.17,0-132.126,0-186.296,0c-14.508,0-27.308,9.541-31.224,23.399c-4.933,17.456-4.933,35.652,0,53.107
		c3.916,13.858,16.716,23.399,31.224,23.399H591.87c8.156,0,14.9-6.282,15.447-14.354c1.606-23.706,1.606-47.492,0-71.197
		C606.77,397.699,600.026,391.418,591.87,391.418z"/><path fill="#c4c4c4" d="M473.957,472.807c-3.962-20.77-3.962-42.102,0-62.872c73.74,0,173.646,0,247.386,0
		c0,14.428-3.224,37.872-11.811,54.317c-2.755,5.275-8.239,8.556-14.19,8.556H473.957z"/><path fill="#c4c4c4" d="M714.904,409.935c-0.96,14.137-4.384,32.6-11.513,46.254
		c-2.755,5.276-8.239,8.555-14.19,8.555H472.624c0.379,2.695,0.822,5.384,1.333,8.063h221.385c5.951,0,11.435-3.28,14.19-8.555
		c8.587-16.445,11.811-39.889,11.811-54.317C719.219,409.935,717.069,409.935,714.904,409.935z" opacity=".77"/><path fill="none" stroke="#340600" stroke-linecap="round" stroke-linejoin="round" stroke-miterlimit="10" stroke-width="8" d="
		M473.957,472.807c-3.962-20.77-3.962-42.102,0-62.872c73.74,0,173.646,0,247.386,0c0,14.428-3.224,37.872-11.811,54.317
		c-2.755,5.275-8.239,8.556-14.19,8.556H473.957z"/><path fill="#fff" d="M720.542,423.694c0.542-5.048,0.801-9.757,0.801-13.759
		c-73.74,0-173.646,0-247.386,0c-0.87,4.563-1.538,9.154-2.026,13.759C547.378,423.694,644.507,423.694,720.542,423.694z"/><path fill="none" stroke="#340600" stroke-linecap="round" stroke-linejoin="round" stroke-miterlimit="10" stroke-width="8" d="
		M720.542,423.694c0.542-5.048,0.801-9.757,0.801-13.759c-73.74,0-173.646,0-247.386,0c-0.87,4.563-1.538,9.154-2.026,13.759
		C547.378,423.694,644.507,423.694,720.542,423.694z"/><line x1="481.29" x2="467.415" y1="425.67" y2="472.807" fill="none" stroke="#340600" stroke-linecap="round" stroke-linejoin="round" stroke-miterlimit="10" stroke-width="8"/><line x1="507.456" x2="493.581" y1="425.67" y2="472.807" fill="none" stroke="#340600" stroke-linecap="round" stroke-linejoin="round" stroke-miterlimit="10" stroke-width="8"/><line x1="533.622" x2="519.747" y1="425.67" y2="472.807" fill="none" stroke="#340600" stroke-linecap="round" stroke-linejoin="round" stroke-miterlimit="10" stroke-width="8"/><line x1="559.788" x2="545.913" y1="425.67" y2="472.807" fill="none" stroke="#340600" stroke-linecap="round" stroke-linejoin="round" stroke-miterlimit="10" stroke-width="8"/><line x1="585.953" x2="572.079" y1="425.67" y2="472.807" fill="none" stroke="#340600" stroke-linecap="round" stroke-linejoin="round" stroke-miterlimit="10" stroke-width="8"/><line x1="612.119" x2="598.244" y1="425.67" y2="472.807" fill="none" stroke="#340600" stroke-linecap="round" stroke-linejoin="round" stroke-miterlimit="10" stroke-width="8"/><line x1="638.285" x2="624.41" y1="425.67" y2="472.807" fill="none" stroke="#340600" stroke-linecap="round" stroke-linejoin="round" stroke-miterlimit="10" stroke-width="8"/><line x1="664.451" x2="650.576" y1="425.67" y2="472.807" fill="none" stroke="#340600" stroke-linecap="round" stroke-linejoin="round" stroke-miterlimit="10" stroke-width="8"/><line x1="690.617" x2="676.742" y1="425.67" y2="472.807" fill="none" stroke="#340600" stroke-linecap="round" stroke-linejoin="round" stroke-miterlimit="10" stroke-width="8"/><path fill="#47a942" d="M608.274,425.67c-0.198-6.636-0.508-13.27-0.957-19.898
			c-0.547-8.073-7.291-14.354-15.447-14.354c-54.17,0-132.126,0-186.296,0c-14.508,0-27.308,9.541-31.224,23.399
			c-1.015,3.59-1.809,7.213-2.406,10.853H608.274z"/><path fill="#81c347" d="M409.046,405.809c54.169,0,132.126,0,186.296,0c4.982,0,9.428,2.351,12.266,6.015
			c-0.097-1.684-0.177-3.368-0.291-5.051c-0.547-8.073-7.291-14.354-15.447-14.354c-54.17,0-132.126,0-186.296,0
			c-14.508,0-27.308,9.541-31.224,23.399c-1.015,3.59-1.809,7.213-2.406,10.853h6.712
			C383.34,414.198,395.442,405.809,409.046,405.809z"/><path fill="#cadb2a" d="M607.317,406.772c-0.547-8.073-7.291-14.354-15.447-14.354
			c-54.17,0-132.126,0-186.296,0c-14.508,0-27.308,9.541-31.224,23.399c-1.015,3.59-1.809,7.213-2.406,10.853h0.183
			c0.289-1.197,0.592-2.392,0.929-3.582c3.916-13.858,16.716-23.399,31.224-23.399c54.169,0,132.126,0,186.296,0
			c6.371,0,11.865,3.841,14.232,9.366c1.043,0.806,1.992,1.727,2.799,2.769C607.511,410.14,607.431,408.455,607.317,406.772z"/><path fill="none" stroke="#340600" stroke-linecap="round" stroke-linejoin="round" stroke-miterlimit="10" stroke-width="8" d="
			M608.274,425.67c-0.198-6.636-0.508-13.27-0.957-19.898c-0.547-8.073-7.291-14.354-15.447-14.354c-54.17,0-132.126,0-186.296,0
			c-14.508,0-27.308,9.541-31.224,23.399c-1.015,3.59-1.809,7.213-2.406,10.853H608.274z"/><path fill="#47a942" d="M607.317,476.969c0.489-7.223,0.811-14.454,1.002-21.687l-5.394-3.446
			l-14.888,9.515l-14.892-9.515l-14.888,9.515l-14.892-9.515l-14.895,9.515l-14.892-9.515l-14.893,9.515l-14.894-9.515
			l-14.897,9.515L454,451.836l-14.896,9.515l-14.896-9.515l-14.891,9.515l-14.895-9.515l-14.9,9.515l-7.676-4.903
			c0.606,3.85,1.431,7.682,2.504,11.477c3.916,13.858,16.716,23.399,31.224,23.399H591.87
			C600.026,491.324,606.77,485.042,607.317,476.969z"/><path fill="#26863f" d="M607.456,454.731c-0.17,3.803-0.379,7.605-0.636,11.405
			c-0.547,8.073-7.291,14.354-15.447,14.354H405.077c-14.221,0-26.777-9.177-30.959-22.591l-2.272-1.451
			c0.606,3.85,1.431,7.682,2.504,11.477c3.916,13.858,16.716,23.399,31.224,23.399H591.87c8.156,0,14.9-6.282,15.447-14.354
			c0.489-7.223,0.811-14.454,1.002-21.687L607.456,454.731z"/><path fill="none" stroke="#340600" stroke-linecap="round" stroke-linejoin="round" stroke-miterlimit="10" stroke-width="8" d="
			M607.317,476.969c0.489-7.223,0.811-14.454,1.002-21.687l-5.394-3.446l-14.888,9.515l-14.892-9.515l-14.888,9.515l-14.892-9.515
			l-14.895,9.515l-14.892-9.515l-14.893,9.515l-14.894-9.515l-14.897,9.515L454,451.836l-14.896,9.515l-14.896-9.515l-14.891,9.515
			l-14.895-9.515l-14.9,9.515l-7.676-4.903c0.606,3.85,1.431,7.682,2.504,11.477c3.916,13.858,16.716,23.399,31.224,23.399H591.87
			C600.026,491.324,606.77,485.042,607.317,476.969z"/><circle cx="479.904" cy="442.202" r="25.769" fill="#cc0"/><circle cx="479.904" cy="442.202" r="25.769" fill="none" stroke="#340600" stroke-linecap="round" stroke-linejoin="round" stroke-miterlimit="10" stroke-width="8"/><rect width="18.734" height="17.888" x="608.478" y="464.688" fill="#245b34" transform="rotate(90 617.845 473.631)"/><rect width="18.734" height="17.888" x="608.478" y="464.688" fill="none" stroke="#340600" stroke-linecap="round" stroke-linejoin="round" stroke-miterlimit="10" stroke-width="8" transform="rotate(90 617.845 473.631)"/><rect width="18.734" height="17.888" x="608.478" y="406.448" fill="#245b34" transform="rotate(90 617.845 415.392)"/><rect width="18.734" height="17.888" x="608.478" y="406.448" fill="none" stroke="#340600" stroke-linecap="round" stroke-linejoin="round" stroke-miterlimit="10" stroke-width="8" transform="rotate(90 617.845 415.392)"/><line x1="455.115" x2="495.763" y1="447.74" y2="422.724" fill="none" stroke="#340600" stroke-linecap="round" stroke-linejoin="round" stroke-miterlimit="10" stroke-width="8"/><line x1="464.99" x2="505.638" y1="461.746" y2="436.731" fill="none" stroke="#340600" stroke-linecap="round" stroke-linejoin="round" stroke-miterlimit="10" stroke-width="8"/></g><g><path fill="#cb0000" stroke="#cb0000" stroke-linecap="round" stroke-linejoin="round" stroke-miterlimit="10" stroke-width="8" d="
		M893.157,354.848h-500.39c-9.224,0-16.702-7.478-16.702-16.702v-51.482c0-9.224,7.478-16.702,16.702-16.702h500.39
		c9.224,0,16.702,7.478,16.702,16.702v51.482C909.859,347.371,902.381,354.848,893.157,354.848z"/><path fill="#ff9e03" d="M880.787,341.994h-500.39c-9.224,0-16.702-7.478-16.702-16.702V273.81
		c0-9.224,7.478-16.702,16.702-16.702h500.39c9.224,0,16.702,7.478,16.702,16.702v51.482
		C897.489,334.516,890.011,341.994,880.787,341.994z"/><path fill="none" stroke="#340600" stroke-linecap="round" stroke-linejoin="round" stroke-miterlimit="10" stroke-width="8" d="
		M880.787,341.994h-500.39c-9.224,0-16.702-7.478-16.702-16.702V273.81c0-9.224,7.478-16.702,16.702-16.702h500.39
		c9.224,0,16.702,7.478,16.702,16.702v51.482C897.489,334.516,890.011,341.994,880.787,341.994z"/><line x1="391.907" x2="863.277" y1="300.673" y2="300.673" fill="none" stroke="#340600" stroke-linecap="round" stroke-linejoin="round" stroke-miterlimit="10" stroke-width="10"/><line x1="862.537" x2="862.537" y1="257.108" y2="274.185" fill="none" stroke="#340600" stroke-linejoin="round" stroke-miterlimit="10" stroke-width="3"/><line x1="816.148" x2="816.148" y1="257.108" y2="274.185" fill="none" stroke="#340600" stroke-linejoin="round" stroke-miterlimit="10" stroke-width="3"/><line x1="828.346" x2="828.346" y1="257.108" y2="266.024" fill="none" stroke="#340600" stroke-linejoin="round" stroke-miterlimit="10" stroke-width="3"/><line x1="850.682" x2="850.682" y1="257.108" y2="266.024" fill="none" stroke="#340600" stroke-linejoin="round" stroke-miterlimit="10" stroke-width="3"/><line x1="839.514" x2="839.514" y1="257.108" y2="269.503" fill="none" stroke="#340600" stroke-linejoin="round" stroke-miterlimit="10" stroke-width="3"/><line x1="769.759" x2="769.759" y1="257.108" y2="274.185" fill="none" stroke="#340600" stroke-linejoin="round" stroke-miterlimit="10" stroke-width="3"/><line x1="781.957" x2="781.957" y1="257.108" y2="266.024" fill="none" stroke="#340600" stroke-linejoin="round" stroke-miterlimit="10" stroke-width="3"/><line x1="804.293" x2="804.293" y1="257.108" y2="266.024" fill="none" stroke="#340600" stroke-linejoin="round" stroke-miterlimit="10" stroke-width="3"/><line x1="793.125" x2="793.125" y1="257.108" y2="269.503" fill="none" stroke="#340600" stroke-linejoin="round" stroke-miterlimit="10" stroke-width="3"/><line x1="723.37" x2="723.37" y1="257.108" y2="274.185" fill="none" stroke="#340600" stroke-linejoin="round" stroke-miterlimit="10" stroke-width="3"/><line x1="735.568" x2="735.568" y1="257.108" y2="266.024" fill="none" stroke="#340600" stroke-linejoin="round" stroke-miterlimit="10" stroke-width="3"/><line x1="757.904" x2="757.904" y1="257.108" y2="266.024" fill="none" stroke="#340600" stroke-linejoin="round" stroke-miterlimit="10" stroke-width="3"/><line x1="746.736" x2="746.736" y1="257.108" y2="269.503" fill="none" stroke="#340600" stroke-linejoin="round" stroke-miterlimit="10" stroke-width="3"/><g><line x1="676.981" x2="676.981" y1="257.108" y2="274.185" fill="none" stroke="#340600" stroke-linejoin="round" stroke-miterlimit="10" stroke-width="3"/><line x1="689.179" x2="689.179" y1="257.108" y2="266.024" fill="none" stroke="#340600" stroke-linejoin="round" stroke-miterlimit="10" stroke-width="3"/><line x1="711.515" x2="711.515" y1="257.108" y2="266.024" fill="none" stroke="#340600" stroke-linejoin="round" stroke-miterlimit="10" stroke-width="3"/><line x1="700.347" x2="700.347" y1="257.108" y2="269.503" fill="none" stroke="#340600" stroke-linejoin="round" stroke-miterlimit="10" stroke-width="3"/></g><g><line x1="630.592" x2="630.592" y1="257.108" y2="274.185" fill="none" stroke="#340600" stroke-linejoin="round" stroke-miterlimit="10" stroke-width="3"/><line x1="642.79" x2="642.79" y1="257.108" y2="266.024" fill="none" stroke="#340600" stroke-linejoin="round" stroke-miterlimit="10" stroke-width="3"/><line x1="665.126" x2="665.126" y1="257.108" y2="266.024" fill="none" stroke="#340600" stroke-linejoin="round" stroke-miterlimit="10" stroke-width="3"/><line x1="653.958" x2="653.958" y1="257.108" y2="269.503" fill="none" stroke="#340600" stroke-linejoin="round" stroke-miterlimit="10" stroke-width="3"/></g><g><line x1="584.203" x2="584.203" y1="257.108" y2="274.185" fill="none" stroke="#340600" stroke-linejoin="round" stroke-miterlimit="10" stroke-width="3"/><line x1="596.401" x2="596.401" y1="257.108" y2="266.024" fill="none" stroke="#340600" stroke-linejoin="round" stroke-miterlimit="10" stroke-width="3"/><line x1="618.737" x2="618.737" y1="257.108" y2="266.024" fill="none" stroke="#340600" stroke-linejoin="round" stroke-miterlimit="10" stroke-width="3"/><line x1="607.569" x2="607.569" y1="257.108" y2="269.503" fill="none" stroke="#340600" stroke-linejoin="round" stroke-miterlimit="10" stroke-width="3"/></g><g><line x1="537.814" x2="537.814" y1="257.108" y2="274.185" fill="none" stroke="#340600" stroke-linejoin="round" stroke-miterlimit="10" stroke-width="3"/><line x1="550.013" x2="550.013" y1="257.108" y2="266.024" fill="none" stroke="#340600" stroke-linejoin="round" stroke-miterlimit="10" stroke-width="3"/><line x1="572.348" x2="572.348" y1="257.108" y2="266.024" fill="none" stroke="#340600" stroke-linejoin="round" stroke-miterlimit="10" stroke-width="3"/><line x1="561.18" x2="561.18" y1="257.108" y2="269.503" fill="none" stroke="#340600" stroke-linejoin="round" stroke-miterlimit="10" stroke-width="3"/></g><g><line x1="491.425" x2="491.425" y1="257.108" y2="274.185" fill="none" stroke="#340600" stroke-linejoin="round" stroke-miterlimit="10" stroke-width="3"/><line x1="503.624" x2="503.624" y1="257.108" y2="266.024" fill="none" stroke="#340600" stroke-linejoin="round" stroke-miterlimit="10" stroke-width="3"/><line x1="525.959" x2="525.959" y1="257.108" y2="266.024" fill="none" stroke="#340600" stroke-linejoin="round" stroke-miterlimit="10" stroke-width="3"/><line x1="514.791" x2="514.791" y1="257.108" y2="269.503" fill="none" stroke="#340600" stroke-linejoin="round" stroke-miterlimit="10" stroke-width="3"/></g><g><line x1="445.036" x2="445.036" y1="257.108" y2="274.185" fill="none" stroke="#340600" stroke-linejoin="round" stroke-miterlimit="10" stroke-width="3"/><line x1="457.235" x2="457.235" y1="257.108" y2="266.024" fill="none" stroke="#340600" stroke-linejoin="round" stroke-miterlimit="10" stroke-width="3"/><line x1="479.57" x2="479.57" y1="257.108" y2="266.024" fill="none" stroke="#340600" stroke-linejoin="round" stroke-miterlimit="10" stroke-width="3"/><line x1="468.402" x2="468.402" y1="257.108" y2="269.503" fill="none" stroke="#340600" stroke-linejoin="round" stroke-miterlimit="10" stroke-width="3"/></g><g><line x1="398.647" x2="398.647" y1="257.108" y2="274.185" fill="none" stroke="#340600" stroke-linejoin="round" stroke-miterlimit="10" stroke-width="3"/><line x1="410.846" x2="410.846" y1="257.108" y2="266.024" fill="none" stroke="#340600" stroke-linejoin="round" stroke-miterlimit="10" stroke-width="3"/><line x1="433.181" x2="433.181" y1="257.108" y2="266.024" fill="none" stroke="#340600" stroke-linejoin="round" stroke-miterlimit="10" stroke-width="3"/><line x1="422.013" x2="422.013" y1="257.108" y2="269.503" fill="none" stroke="#340600" stroke-linejoin="round" stroke-miterlimit="10" stroke-width="3"/></g></g><g><path fill="#cb0000" stroke="#cb0000" stroke-linecap="round" stroke-linejoin="round" stroke-miterlimit="10" stroke-width="8" d="
		M900.534,466.431L548.683,710.638c-4.944,3.291-2.614,10.995,3.325,10.995h353.851c2.209,0,4-1.791,4-4V471.425
		C909.859,466.635,904.522,463.776,900.534,466.431z M696.416,671.801l163.612-118.34v118.34H696.416z"/><path fill="#ff9e03" d="M889.534,454.431L537.683,698.638c-4.944,3.291-2.614,10.995,3.325,10.995h353.851
			c2.209,0,4-1.791,4-4V459.425C898.859,454.635,893.522,451.776,889.534,454.431z M685.416,659.801l163.612-118.34v118.34H685.416z
			"/><path fill="none" stroke="#340600" stroke-linecap="round" stroke-linejoin="round" stroke-miterlimit="10" stroke-width="8" d="
			M889.534,454.431L537.683,698.638c-4.944,3.291-2.614,10.995,3.325,10.995h353.851c2.209,0,4-1.791,4-4V459.425
			C898.859,454.635,893.522,451.776,889.534,454.431z M685.416,659.801l163.612-118.34v118.34H685.416z"/><line x1="877.777" x2="877.777" y1="709.448" y2="692.883" fill="none" stroke="#340600" stroke-linejoin="round" stroke-miterlimit="10" stroke-width="3"/><line x1="832.777" x2="832.777" y1="709.448" y2="692.883" fill="none" stroke="#340600" stroke-linejoin="round" stroke-miterlimit="10" stroke-width="3"/><line x1="844.61" x2="844.61" y1="709.448" y2="700.8" fill="none" stroke="#340600" stroke-linejoin="round" stroke-miterlimit="10" stroke-width="3"/><line x1="866.277" x2="866.277" y1="709.448" y2="700.8" fill="none" stroke="#340600" stroke-linejoin="round" stroke-miterlimit="10" stroke-width="3"/><line x1="855.444" x2="855.444" y1="709.448" y2="697.425" fill="none" stroke="#340600" stroke-linejoin="round" stroke-miterlimit="10" stroke-width="3"/><line x1="787.777" x2="787.777" y1="709.448" y2="692.883" fill="none" stroke="#340600" stroke-linejoin="round" stroke-miterlimit="10" stroke-width="3"/><line x1="799.61" x2="799.61" y1="709.448" y2="700.8" fill="none" stroke="#340600" stroke-linejoin="round" stroke-miterlimit="10" stroke-width="3"/><line x1="821.277" x2="821.277" y1="709.448" y2="700.8" fill="none" stroke="#340600" stroke-linejoin="round" stroke-miterlimit="10" stroke-width="3"/><line x1="810.444" x2="810.444" y1="709.448" y2="697.425" fill="none" stroke="#340600" stroke-linejoin="round" stroke-miterlimit="10" stroke-width="3"/><g><line x1="742.777" x2="742.777" y1="709.448" y2="692.883" fill="none" stroke="#340600" stroke-linejoin="round" stroke-miterlimit="10" stroke-width="3"/><line x1="754.61" x2="754.61" y1="709.448" y2="700.8" fill="none" stroke="#340600" stroke-linejoin="round" stroke-miterlimit="10" stroke-width="3"/><line x1="776.277" x2="776.277" y1="709.448" y2="700.8" fill="none" stroke="#340600" stroke-linejoin="round" stroke-miterlimit="10" stroke-width="3"/><line x1="765.444" x2="765.444" y1="709.448" y2="697.425" fill="none" stroke="#340600" stroke-linejoin="round" stroke-miterlimit="10" stroke-width="3"/></g><g><line x1="697.777" x2="697.777" y1="709.448" y2="692.883" fill="none" stroke="#340600" stroke-linejoin="round" stroke-miterlimit="10" stroke-width="3"/><line x1="709.61" x2="709.61" y1="709.448" y2="700.8" fill="none" stroke="#340600" stroke-linejoin="round" stroke-miterlimit="10" stroke-width="3"/><line x1="731.277" x2="731.277" y1="709.448" y2="700.8" fill="none" stroke="#340600" stroke-linejoin="round" stroke-miterlimit="10" stroke-width="3"/><line x1="720.444" x2="720.444" y1="709.448" y2="697.425" fill="none" stroke="#340600" stroke-linejoin="round" stroke-miterlimit="10" stroke-width="3"/></g><g><line x1="652.777" x2="652.777" y1="709.448" y2="692.883" fill="none" stroke="#340600" stroke-linejoin="round" stroke-miterlimit="10" stroke-width="3"/><line x1="664.61" x2="664.61" y1="709.448" y2="700.8" fill="none" stroke="#340600" stroke-linejoin="round" stroke-miterlimit="10" stroke-width="3"/><line x1="686.277" x2="686.277" y1="709.448" y2="700.8" fill="none" stroke="#340600" stroke-linejoin="round" stroke-miterlimit="10" stroke-width="3"/><line x1="675.444" x2="675.444" y1="709.448" y2="697.425" fill="none" stroke="#340600" stroke-linejoin="round" stroke-miterlimit="10" stroke-width="3"/></g><g><line x1="607.777" x2="607.777" y1="709.448" y2="692.883" fill="none" stroke="#340600" stroke-linejoin="round" stroke-miterlimit="10" stroke-width="3"/><line x1="619.61" x2="619.61" y1="709.448" y2="700.8" fill="none" stroke="#340600" stroke-linejoin="round" stroke-miterlimit="10" stroke-width="3"/><line x1="641.277" x2="641.277" y1="709.448" y2="700.8" fill="none" stroke="#340600" stroke-linejoin="round" stroke-miterlimit="10" stroke-width="3"/><line x1="630.444" x2="630.444" y1="709.448" y2="697.425" fill="none" stroke="#340600" stroke-linejoin="round" stroke-miterlimit="10" stroke-width="3"/></g><g><line x1="562.777" x2="562.777" y1="709.448" y2="692.883" fill="none" stroke="#340600" stroke-linejoin="round" stroke-miterlimit="10" stroke-width="3"/><line x1="574.61" x2="574.61" y1="709.448" y2="700.8" fill="none" stroke="#340600" stroke-linejoin="round" stroke-miterlimit="10" stroke-width="3"/><line x1="596.277" x2="596.277" y1="709.448" y2="700.8" fill="none" stroke="#340600" stroke-linejoin="round" stroke-miterlimit="10" stroke-width="3"/><line x1="585.444" x2="585.444" y1="709.448" y2="697.425" fill="none" stroke="#340600" stroke-linejoin="round" stroke-miterlimit="10" stroke-width="3"/></g><g><line x1="897.965" x2="881.4" y1="509.159" y2="509.159" fill="none" stroke="#340600" stroke-linejoin="round" stroke-miterlimit="10" stroke-width="3"/><line x1="897.965" x2="889.317" y1="497.326" y2="497.326" fill="none" stroke="#340600" stroke-linejoin="round" stroke-miterlimit="10" stroke-width="3"/><line x1="897.965" x2="889.317" y1="475.659" y2="475.659" fill="none" stroke="#340600" stroke-linejoin="round" stroke-miterlimit="10" stroke-width="3"/><line x1="897.965" x2="885.942" y1="486.492" y2="486.492" fill="none" stroke="#340600" stroke-linejoin="round" stroke-miterlimit="10" stroke-width="3"/><line x1="897.965" x2="881.4" y1="554.159" y2="554.159" fill="none" stroke="#340600" stroke-linejoin="round" stroke-miterlimit="10" stroke-width="3"/><line x1="897.965" x2="889.317" y1="542.326" y2="542.326" fill="none" stroke="#340600" stroke-linejoin="round" stroke-miterlimit="10" stroke-width="3"/><line x1="897.965" x2="889.317" y1="520.659" y2="520.659" fill="none" stroke="#340600" stroke-linejoin="round" stroke-miterlimit="10" stroke-width="3"/><line x1="897.965" x2="885.942" y1="531.492" y2="531.492" fill="none" stroke="#340600" stroke-linejoin="round" stroke-miterlimit="10" stroke-width="3"/><g><line x1="897.965" x2="881.4" y1="599.159" y2="599.159" fill="none" stroke="#340600" stroke-linejoin="round" stroke-miterlimit="10" stroke-width="3"/><line x1="897.965" x2="889.317" y1="587.326" y2="587.326" fill="none" stroke="#340600" stroke-linejoin="round" stroke-miterlimit="10" stroke-width="3"/><line x1="897.965" x2="889.317" y1="565.659" y2="565.659" fill="none" stroke="#340600" stroke-linejoin="round" stroke-miterlimit="10" stroke-width="3"/><line x1="897.965" x2="885.942" y1="576.492" y2="576.492" fill="none" stroke="#340600" stroke-linejoin="round" stroke-miterlimit="10" stroke-width="3"/></g><g><line x1="897.965" x2="881.4" y1="644.159" y2="644.159" fill="none" stroke="#340600" stroke-linejoin="round" stroke-miterlimit="10" stroke-width="3"/><line x1="897.965" x2="889.317" y1="632.326" y2="632.326" fill="none" stroke="#340600" stroke-linejoin="round" stroke-miterlimit="10" stroke-width="3"/><line x1="897.965" x2="889.317" y1="610.659" y2="610.659" fill="none" stroke="#340600" stroke-linejoin="round" stroke-miterlimit="10" stroke-width="3"/><line x1="897.965" x2="885.942" y1="621.492" y2="621.492" fill="none" stroke="#340600" stroke-linejoin="round" stroke-miterlimit="10" stroke-width="3"/></g><g><line x1="897.965" x2="881.4" y1="689.159" y2="689.159" fill="none" stroke="#340600" stroke-linejoin="round" stroke-miterlimit="10" stroke-width="3"/><line x1="897.965" x2="889.317" y1="677.326" y2="677.326" fill="none" stroke="#340600" stroke-linejoin="round" stroke-miterlimit="10" stroke-width="3"/><line x1="897.965" x2="889.317" y1="655.659" y2="655.659" fill="none" stroke="#340600" stroke-linejoin="round" stroke-miterlimit="10" stroke-width="3"/><line x1="897.965" x2="885.942" y1="666.492" y2="666.492" fill="none" stroke="#340600" stroke-linejoin="round" stroke-miterlimit="10" stroke-width="3"/></g></g></g><g><path fill="#cb0000" stroke="#cb0000" stroke-linecap="round" stroke-linejoin="round" stroke-miterlimit="10" stroke-width="8" d="
			M535.431,636.411H394.257c-5.909,0-10.699-4.79-10.699-10.699v-55.586c0-5.909,4.79-10.699,10.699-10.699h141.174
			c5.909,0,10.699,4.79,10.699,10.699v55.586C546.129,631.621,541.339,636.411,535.431,636.411z"/><path fill="#cb0000" stroke="#cb0000" stroke-linecap="round" stroke-linejoin="round" stroke-miterlimit="10" stroke-width="8" d="
			M503.821,642.659h-94.696c-3.035,0-5.495-2.46-5.495-5.495v-79.676c0-3.035,2.46-5.495,5.495-5.495h94.696
			c3.035,0,5.495,2.46,5.495,5.495v79.676C509.316,640.199,506.856,642.659,503.821,642.659z"/><path fill="#fff" d="M526.431,626.411H385.257c-5.909,0-10.699-4.79-10.699-10.699v-55.586
		c0-5.909,4.79-10.699,10.699-10.699h141.174c5.909,0,10.699,4.79,10.699,10.699v55.586
		C537.129,621.621,532.339,626.411,526.431,626.411z"/><path fill="#bfbfbf" d="M499.618,626.411H395.57c-5.909,0-10.699-4.79-10.699-10.699v-55.586
		c0-5.909,4.79-10.699,10.699-10.699h104.048c5.909,0,10.699,4.79,10.699,10.699v55.586
		C510.316,621.621,505.526,626.411,499.618,626.411z"/><path fill="none" stroke="#340600" stroke-linecap="round" stroke-linejoin="round" stroke-miterlimit="10" stroke-width="8" d="
		M526.431,626.411H385.257c-5.909,0-10.699-4.79-10.699-10.699v-55.586c0-5.909,4.79-10.699,10.699-10.699h141.174
		c5.909,0,10.699,4.79,10.699,10.699v55.586C537.129,621.621,532.339,626.411,526.431,626.411z"/><path fill="#06a0ff" d="M494.821,632.659h-94.696c-3.035,0-5.495-2.46-5.495-5.495v-79.676
		c0-3.035,2.46-5.495,5.495-5.495h94.696c3.035,0,5.495,2.46,5.495,5.495v79.676C500.316,630.199,497.856,632.659,494.821,632.659z"/><path fill="#06a0ff" d="M494.821,632.659h-94.696c-3.035,0-5.495-2.46-5.495-5.495v-1.335
		c0-3.035,2.46-5.495,5.495-5.495h94.696c3.035,0,5.495,2.46,5.495,5.495v1.335C500.316,630.199,497.856,632.659,494.821,632.659z" opacity=".27"/><path fill="#06a0ff" d="M494.821,555.591h-94.696c-3.035,0-5.495-2.46-5.495-5.495v-1.335
		c0-3.035,2.46-5.495,5.495-5.495h94.696c3.035,0,5.495,2.46,5.495,5.495v1.335C500.316,553.13,497.856,555.591,494.821,555.591z" opacity=".38"/><path fill="none" stroke="#340600" stroke-linecap="round" stroke-linejoin="round" stroke-miterlimit="10" stroke-width="8" d="
		M494.821,632.659h-94.696c-3.035,0-5.495-2.46-5.495-5.495v-79.676c0-3.035,2.46-5.495,5.495-5.495h94.696
		c3.035,0,5.495,2.46,5.495,5.495v79.676C500.316,630.199,497.856,632.659,494.821,632.659z"/><line x1="416" x2="470.985" y1="570.333" y2="570.333" fill="none" stroke="#340600" stroke-linecap="round" stroke-linejoin="round" stroke-miterlimit="10" stroke-width="8" opacity=".58"/><line x1="416" x2="439" y1="587.919" y2="587.919" fill="none" stroke="#340600" stroke-linecap="round" stroke-linejoin="round" stroke-miterlimit="10" stroke-width="8" opacity=".58"/></g></svg>