<svg xmlns="http://www.w3.org/2000/svg" enable-background="new 0 0 1000 1000" viewBox="0 0 1000 1000"><rect width="1000" height="1000" fill="#3f3d44"/><rect width="150" height="358.188" x="642.549" y="3" fill="#ff8603"/><path fill="#ed5f18" d="M762.549,60.5V111c0,8.284-6.716,15-15,15l0,0c-8.284,0-15-6.716-15-15V43
	c0-8.284-6.716-15-15-15l0,0c-8.284,0-15,6.716-15,15v68c0,8.284-6.716,15-15,15l0,0c-8.284,0-15-6.716-15-15V88
	c0-8.284-6.716-15-15-15l0,0c-8.284,0-15,6.716-15,15v38v11v212.188h150V137v-11V60.5c0-8.284-6.716-15-15-15l0,0
	C769.265,45.5,762.549,52.216,762.549,60.5z"/><path fill="#ef2531" d="M762.549,72.5V123c0,8.284-6.716,15-15,15l0,0c-8.284,0-15-6.716-15-15V55
	c0-8.284-6.716-15-15-15l0,0c-8.284,0-15,6.716-15,15v68c0,8.284-6.716,15-15,15l0,0c-8.284,0-15-6.716-15-15v-23
	c0-8.284-6.716-15-15-15l0,0c-8.284,0-15,6.716-15,15v38v11v212.188h150V149v-11V72.5c0-8.284-6.716-15-15-15l0,0
	C769.265,57.5,762.549,64.216,762.549,72.5z"/><path fill="#cc253d" d="M762.549,168.333v71.055c0,8.284-6.716,15-15,15l0,0c-8.284,0-15-6.716-15-15
	v-36.795c0-8.284-6.716-15-15-15l0,0c-8.284,0-15,6.716-15,15v36.795c0,8.284-6.716,15-15,15l0,0c-8.284,0-15-6.716-15-15v-50.5
	c0-8.284-6.716-15-15-15l0,0c-8.284,0-15,6.716-15,15v65.5v11v87.462h150v-87.462v-11v-86.055c0-8.284-6.716-15-15-15l0,0
	C769.265,153.333,762.549,160.049,762.549,168.333z"/><path fill="none" stroke="#3f2522" stroke-linecap="round" stroke-linejoin="round" stroke-miterlimit="10" stroke-width="6" d="
	M762.549,72.5V123c0,8.284-6.716,15-15,15l0,0c-8.284,0-15-6.716-15-15V55c0-8.284-6.716-15-15-15l0,0c-8.284,0-15,6.716-15,15v68
	c0,8.284-6.716,15-15,15l0,0c-8.284,0-15-6.716-15-15v-23c0-8.284-6.716-15-15-15l0,0c-8.284,0-15,6.716-15,15v38v11v212.188h150
	V149v-11V72.5c0-8.284-6.716-15-15-15l0,0C769.265,57.5,762.549,64.216,762.549,72.5z"/><path fill="#38beb3" d="M762.549,181.333v71.055c0,8.284-6.716,15-15,15l0,0c-8.284,0-15-6.716-15-15
	v-36.795c0-8.284-6.716-15-15-15l0,0c-8.284,0-15,6.716-15,15v36.795c0,8.284-6.716,15-15,15l0,0c-8.284,0-15-6.716-15-15v-50.5
	c0-8.284-6.716-15-15-15l0,0c-8.284,0-15,6.716-15,15v65.5v11v87.462h150v-87.462v-11v-86.055c0-8.284-6.716-15-15-15l0,0
	C769.265,166.333,762.549,173.049,762.549,181.333z"/><rect width="150.049" height="36.188" x="642.5" y="325" fill="#026060" opacity=".14"/><path fill="none" stroke="#3f2522" stroke-linecap="round" stroke-linejoin="round" stroke-miterlimit="10" stroke-width="6" d="
	M762.549,181.333v71.055c0,8.284-6.716,15-15,15l0,0c-8.284,0-15-6.716-15-15v-36.795c0-8.284-6.716-15-15-15l0,0
	c-8.284,0-15,6.716-15,15v36.795c0,8.284-6.716,15-15,15l0,0c-8.284,0-15-6.716-15-15v-50.5c0-8.284-6.716-15-15-15l0,0
	c-8.284,0-15,6.716-15,15v65.5v11v87.462h150v-87.462v-11v-86.055c0-8.284-6.716-15-15-15l0,0
	C769.265,166.333,762.549,173.049,762.549,181.333z"/><rect width="150" height="358.188" x="642.549" y="3" fill="none" stroke="#3f2522" stroke-linecap="round" stroke-linejoin="round" stroke-miterlimit="10" stroke-width="6"/><path fill="none" stroke="#3f2522" stroke-linecap="round" stroke-linejoin="round" stroke-miterlimit="10" stroke-width="8" d="
	M715.163,514.417v-21.689c0-14.509,11.762-26.271,26.271-26.271h77.387c14.509,0,26.271-11.762,26.271-26.271v-22.729
	c0-14.509-11.762-26.271-26.271-26.271h-23.729"/><path fill="#f1e4e5" d="M564.431,382.141l-28.162-51.059c-0.918-1.665-3.311-1.665-4.229,0l-28.1,50.953
	v9.213h60.491V382.141z"/><path fill="#ddd4d5" d="M536.269,331.082c-0.918-1.665-3.311-1.665-4.229,0l-3.15,5.711l26.207,47.515v6.94
	h9.333v-9.107L536.269,331.082z"/><path fill="none" stroke="#3f2522" stroke-linecap="round" stroke-linejoin="round" stroke-miterlimit="10" stroke-width="6" d="
	M564.431,382.141l-28.162-51.059c-0.918-1.665-3.311-1.665-4.229,0l-28.1,50.953v9.213h60.491V382.141z"/><path fill="none" stroke="#3f2522" stroke-linecap="round" stroke-linejoin="round" stroke-miterlimit="10" stroke-width="6" d="
	M545.001,346.915l-8.733-15.833c-0.918-1.665-3.311-1.665-4.229,0l-8.731,15.833H545.001z"/><path fill="#3f2522" d="M545.001,346.915l-8.733-15.833c-0.918-1.665-3.311-1.665-4.229,0l-8.731,15.833
	H545.001z"/><path fill="#6b352f" d="M292.323,642.163L292.323,642.163c-16.2,0-29.851-13.365-30.516-30.516
	l-5.484-141.484h72l-5.484,141.484C322.175,628.798,308.524,642.163,292.323,642.163z"/><path fill="#a35d58" d="M262.53,617.333L262.53,617.333c7.824,0,14.073-6.518,13.743-14.335
	l-5.002-118.504c-0.338-8.01-6.931-14.331-14.948-14.331l0,0l5.484,141.484C261.883,613.597,262.134,615.495,262.53,617.333z" opacity=".48"/><path fill="#602c29" d="M328.323,470.163c-9.005,0-16.402,7.115-16.751,16.114l-4.557,117.562
	c-0.665,17.151-14.316,30.516-30.516,30.516c-1.549,0-3.074-0.124-4.567-0.36c5.445,5.09,12.622,8.168,20.39,8.168h0
	c16.2,0,29.851-13.365,30.516-30.516L328.323,470.163L328.323,470.163z"/><defs><filter id="a" width="137.352" height="225.973" x="228.5" y="447.059" filterUnits="userSpaceOnUse"><feColorMatrix values="1 0 0 0 0  0 1 0 0 0  0 0 1 0 0  0 0 0 1 0"/></filter></defs><mask id="b" width="137.352" height="225.973" x="228.5" y="447.059" maskUnits="userSpaceOnUse"><g filter="url(#a)"><path fill="#9f4b22" d="M292.323,642.163L292.323,642.163c-16.2,0-29.851-13.365-30.516-30.516
			l-5.484-141.484h72l-5.484,141.484C322.175,628.798,308.524,642.163,292.323,642.163z"/></g></mask><g mask="url(#b)" opacity=".56"><path fill="none" stroke="#dd795b" stroke-linecap="round" stroke-linejoin="round" stroke-miterlimit="10" stroke-width="6" d="
		M231.5,464.5c0.112,11.617,47.112,8.345,54.75,29.5c7.56,20.939-33.176,38.844-46.25,92.5c-6.323,25.95-3.666,50.14,2.25,52.337
		c7.539,2.799,12.867-36.581,38.25-40.087c15.637-2.16,28,9,43.25,28.25c23.11,29.171,24.805,43.816,30.75,43
		c7.711-1.058,17.726-61.92-9.5-82c-16.134-11.899-35-3.5-45.333-16.333c-9.801-12.172-2.137-29.854,0.234-35.83
		c1.555-3.918,12.326-23.337,29.432-36.17c5.931-4.45,10.128-3.912,13.667-8.667c5.505-7.398,6.811-20.291,0-29.5
		c-9.239-12.492-28.923-11.58-37.5-4c-8.535,7.543,6.069,15.311,0,18c-10.617,4.704-20.613-28.227-41.75-25.25
		C248.601,452.383,231.432,457.448,231.5,464.5z"/><path fill="none" stroke="#dd795b" stroke-linecap="round" stroke-linejoin="round" stroke-miterlimit="10" stroke-width="6" d="M239.25 495.75c10.205-8.057 21.243-10.705 27.75-6.417.793.522 4.431 3.067 5 7.167.728 5.242-4.023 9.698-8.5 14-5.231 5.027-12.781 12.434-22.5 22.5M276.5 462.5c6.5 6.5 15.25 24.103 29.5 24.103 13.75 0 16.123-26.428 22.323-24.103 2.198.824 7.618 5.441 7.927 7.833.661 5.121-3.896 9.597-8.444 13.167 0 0-13.616 10.177-28.101 26.302-6.515 7.253-17.955 24.198-19.889 40.014-1.132 9.256-1.158 21.82 4.684 30.684 9.732 14.767 36.647 18.62 66 8.5"/><path fill="none" stroke="#dd795b" stroke-linecap="round" stroke-linejoin="round" stroke-miterlimit="10" stroke-width="6" d="M342.333 514c-8.973-3.571-27.112 13.169-29.667 31-.336 2.342-1.976 13.79 4.333 18.333 6.79 4.89 19.507-.582 26-8C354.511 542.184 351.189 517.524 342.333 514zM253.333 586.333c-.379-1.335-5.203-19.042 3.877-28 1.167-1.151 7.193-6.468 10.79-.603 2.658 4.334 3.315 19.516-2.167 31.603-5.042 11.117-15.136 15.834-19.833 19M264.333 651c-3.397-13.181 1.463-28.329 11.333-34.25 5.884-3.53 12.347-3.311 12.347-3.311 7.017.256 11.881 3.998 14.487 6.061 0 0 14.824 11.735 14.228 35.82-.008.31-.02.638-.02.638-.13 5.62-1.243 10.212-2.208 13.292"/><path fill="none" stroke="#dd795b" stroke-linecap="round" stroke-linejoin="round" stroke-miterlimit="10" stroke-width="6" d="
		M286.75,648c-4.768-5.07-5.221-11.891-2.083-15.667c2.906-3.498,8.158-3.498,11.333-2.583c6.129,1.766,10.592,8.689,10.667,17.25"/></g><path fill="#bdced9" d="M328.323,470.163c-24,0-48,0-72,0c0.722-27.345,6.396-47.856,14.334-61.667
	c14.444,0,28.888,0,43.331,0C321.927,422.307,327.601,442.818,328.323,470.163z"/><path fill="#fff" d="M270.658,408.497c-7.938,13.81-13.612,34.321-14.334,61.667l0,0
	c7.231,0,13.258-5.527,13.904-12.729c1.889-21.074,6.952-37.36,13.607-48.938H270.658z" opacity=".26"/><path fill="#acc1cc" d="M315.833,424.167h-30.917c-8.514,0-15.417-6.902-15.417-15.417v-0.253h46.333V424.167
	z"/><path fill="#acc1cc" d="M313.989,408.497c-5.691,0-11.382,0-17.073,0
	c7.939,13.81,13.612,34.321,14.334,61.667c5.691,0,11.382,0,17.073,0C327.601,442.818,321.927,422.307,313.989,408.497z"/><path fill="none" stroke="#3f2522" stroke-linecap="round" stroke-linejoin="round" stroke-miterlimit="10" stroke-width="6" d="
	M328.323,470.163c-24,0-48,0-72,0c0.722-27.345,6.396-47.856,14.334-61.667c14.444,0,28.888,0,43.331,0
	C321.927,422.307,327.601,442.818,328.323,470.163z"/><path fill="#bdced9" d="M312.323,408.497h-40c-6.627,0-12-5.373-12-12l0,0c0-6.627,5.373-12,12-12h40
	c6.627,0,12,5.373,12,12l0,0C324.323,403.124,318.951,408.497,312.323,408.497z"/><ellipse cx="266.305" cy="396.497" fill="#fff" opacity=".26" rx="6.125" ry="7.969"/><path fill="#acc1cc" d="M312.323,384.497h-24.195c6.627,0,12,5.373,12,12c0,6.627-5.373,12-12,12h24.195
	c6.627,0,12-5.373,12-12C324.323,389.869,318.951,384.497,312.323,384.497z"/><path fill="none" stroke="#3f2522" stroke-linecap="round" stroke-linejoin="round" stroke-miterlimit="10" stroke-width="6" d="
	M312.323,408.497h-40c-6.627,0-12-5.373-12-12l0,0c0-6.627,5.373-12,12-12h40c6.627,0,12,5.373,12,12l0,0
	C324.323,403.124,318.951,408.497,312.323,408.497z"/><path fill="#3f2522" d="M314.286,315.493c4.747,6.474,12.298,12.974,13.903,24.836
	c0.628,4.639,0.422,9.49-0.75,14.364c-3.669,15.263-21.033,31.459-41.432,29.477c-20.868-2.027-37.68-22.444-34.997-45.836
	c0.674-6.749,3.471-25.781,18.729-42.913c9.347-10.495,19.806-16.275,27.323-19.415c3.098-1.294,6.528,0.913,6.624,4.269
	C304.193,297.928,309.32,308.719,314.286,315.493z"/><path fill="none" stroke="#3f2522" stroke-linecap="round" stroke-linejoin="round" stroke-miterlimit="10" stroke-width="6" d="
	M314.286,315.493c4.747,6.474,12.298,12.974,13.903,24.836c0.628,4.639,0.422,9.49-0.75,14.364
	c-3.669,15.263-21.033,31.459-41.432,29.477c-20.868-2.027-37.68-22.444-34.997-45.836c0.674-6.749,3.471-25.781,18.729-42.913
	c9.347-10.495,19.806-16.275,27.323-19.415c3.098-1.294,6.528,0.913,6.624,4.269C304.193,297.928,309.32,308.719,314.286,315.493z"/><path fill="#301b19" d="M319.92,338.608c0.006-0.165,0.021-0.328,0.021-0.495
	c0.023-0.248,0.07-0.492,0.099-0.738c0.061-0.527,0.129-1.051,0.212-1.571c0.032-0.189,0.066-0.378,0.101-0.567
	c0.479-2.732,1.247-10.87,2.285-13.363c-1.766-0.296-3.368,4.286-4.508,2.898c-1.363-1.66-2.687-3.242-3.844-4.82
	c-4.968-6.775-10.095-17.569-10.6-35.228c-0.096-3.351-3.521-5.555-6.615-4.263c-7.517,3.139-17.981,8.919-27.332,19.419
	c-7.664,8.605-16.489,12.535-19.011,24.369c0.447,0.13,9.056,7.335,9.056,12.773v15.129c0,6.848,5.357,12.722,12.203,12.847
	c6.975,0.128,12.67-5.488,12.67-12.434v-26.045c0-3.799,2.927-7.112,6.725-7.226c3.929-0.118,7.151,3.032,7.151,6.935v11.885
	c0,6.869,4.792,12.437,10.704,12.437c5.41,0,9.871-4.668,10.591-10.725C319.848,339.417,319.886,339.013,319.92,338.608z" opacity=".76"/><path fill="none" stroke="#3f2522" stroke-linecap="round" stroke-linejoin="round" stroke-miterlimit="10" stroke-width="6" d="
	M292.323,642.163L292.323,642.163c-16.2,0-29.851-13.365-30.516-30.516l-5.484-141.484h72l-5.484,141.484
	C322.175,628.798,308.524,642.163,292.323,642.163z"/><path fill="#38beb3" d="M420,635.105L420,635.105c-17.673,0-32-14.327-32-32v-156h64v156
	C452,620.778,437.673,635.105,420,635.105z"/><path fill="#fff" d="M390,615.333L390,615.333V452.667l0,0c6.627,0,12,5.373,12,12v138.667
	C402,609.961,396.627,615.333,390,615.333z" opacity=".23"/><path fill="#026060" d="M437,447.105V595.33c0,17.673-14.327,32-32,32h0
	c-2.296,0-4.534-0.247-6.693-0.706c5.703,5.263,13.321,8.481,21.693,8.481h0c17.673,0,32-14.327,32-32v-156H437z" opacity=".32"/><path fill="none" stroke="#3f2522" stroke-linecap="round" stroke-linejoin="round" stroke-miterlimit="10" stroke-width="6" d="
	M420,635.105L420,635.105c-17.673,0-32-14.327-32-32v-156h64v156C452,620.778,437.673,635.105,420,635.105z"/><path fill="#9bc7bc" d="M436,377.105v-29.583h-32v29.583c0,8.837-7.163,16-16,16l0,0v54h64v-54h0
	C443.163,393.105,436,385.941,436,377.105z"/><path fill="#fff" d="M391,443.667h-0.667v-47.17l0,0c6.259,0,11.333,5.074,11.333,11.333V433
	C401.667,438.891,396.891,443.667,391,443.667z" opacity=".26"/><path fill="#72a596" d="M436,377.105v-29.583l0,0c-7.732,0-14,6.268-14,14v15.583
	c0,11.489,6.492,21.49,16,26.528v29.472c0,7.732,6.268,14,14,14l0,0v-54C443.163,393.105,436,385.941,436,377.105z" opacity=".47"/><path fill="none" stroke="#3f2522" stroke-linecap="round" stroke-linejoin="round" stroke-miterlimit="10" stroke-width="6" d="
	M436,377.105v-29.583h-32v30.281c0,8.451-6.851,15.302-15.302,15.302H388v54h64v-54h0C443.163,393.105,436,385.941,436,377.105z"/><path fill="#94af4a" d="M408,302.869v44.652h24v-33.582c-8.097-1.78-15.184-6.248-20.279-12.422
	C410.467,299.999,408,300.9,408,302.869z"/><path fill="none" stroke="#3f2522" stroke-linecap="round" stroke-linejoin="round" stroke-miterlimit="10" stroke-width="6" d="
	M408,303.672v43.849h24v-33.582c-7.826-1.721-14.709-5.952-19.762-11.808C410.774,300.433,408,301.43,408,303.672z"/><path fill="#ec2731" d="M552.154,636.206h-36c-6.627,0-12-5.373-12-12v-15.458h60v15.458
	C564.154,630.834,558.782,636.206,552.154,636.206z"/><path fill="#d3112e" d="M554.988,618.756v4.688c0,2.931-2.376,5.306-5.306,5.306h-25.6
	c-4.118,0-7.456,3.338-7.456,7.456l0,0h35.529c6.627,0,12-5.373,12-12V610h-0.41C558.908,610,554.988,613.92,554.988,618.756z"/><path fill="#ffa4ad" d="M511.063,630.75L511.063,630.75c-2.175,0-3.937-1.763-3.937-3.938
	l0.001-15.313h3.936c2.174,0,3.937,1.759,3.937,3.933c0,3.323,0,8.059,0,11.383C515,628.991,513.237,630.75,511.063,630.75z" opacity=".51"/><path fill="none" stroke="#3f2522" stroke-linecap="round" stroke-linejoin="round" stroke-miterlimit="10" stroke-width="6" d="
	M552.154,636.206h-36c-6.627,0-12-5.373-12-12v-15.458h60v15.458C564.154,630.834,558.782,636.206,552.154,636.206z"/><path fill="#48633b" d="M566.154,608.748h-20v-221c0-5.523,4.477-10,10-10l0,0c5.523,0,10,4.477,10,10
	V608.748z"/><path fill="none" stroke="#3f2522" stroke-linecap="round" stroke-linejoin="round" stroke-miterlimit="10" stroke-width="6" d="
	M566.154,608.748h-20v-221c0-5.523,4.477-10,10-10l0,0c5.523,0,10,4.477,10,10V608.748z"/><path fill="#94af4a" d="M522.154,608.748h-20v-221c0-5.523,4.477-10,10-10l0,0c5.523,0,10,4.477,10,10
	V608.748z"/><path fill="#bfbc47" d="M506.884,604.218L506.884,604.218c-2.308,0-4.179-1.871-4.179-4.179V386.456
	c0-2.308,1.871-4.179,4.179-4.179l0,0c2.308,0,4.179,1.871,4.179,4.179V600.04C511.063,602.347,509.192,604.218,506.884,604.218z"/><path fill="none" stroke="#3f2522" stroke-linecap="round" stroke-linejoin="round" stroke-miterlimit="10" stroke-width="6" d="
	M522.154,608.748h-20v-221c0-5.523,4.477-10,10-10l0,0c5.523,0,10,4.477,10,10V608.748z"/><path fill="#4d9358" d="M546.154,608.748h-24v-219c0-6.627,5.373-12,12-12l0,0c6.627,0,12,5.373,12,12
	V608.748z"/><path fill="none" stroke="#3f2522" stroke-linecap="round" stroke-linejoin="round" stroke-miterlimit="10" stroke-width="6" d="
	M546.154,608.748h-24v-219c0-6.627,5.373-12,12-12l0,0c6.627,0,12,5.373,12,12V608.748z"/><path fill="#38beb3" d="M788.265,431.188H645.918c-10.674,0-19.326-8.653-19.326-19.326v-41.347
	c0-10.674,8.653-19.326,19.326-19.326h142.347c10.674,0,19.326,8.653,19.326,19.326v41.347
	C807.591,422.535,798.939,431.188,788.265,431.188z"/><path fill="#fff" d="M634.835,416.012L634.835,416.012c-3.221,0-5.832-2.611-5.832-5.832
	v-37.985c0-3.221,2.611-5.832,5.832-5.832l0,0c3.221,0,5.832,2.611,5.832,5.832v37.985
	C640.667,413.401,638.056,416.012,634.835,416.012z" opacity=".23"/><path fill="#026060" d="M780.833 412.355H653.349c-3.406 0-6.167-2.761-6.167-6.167l0 0c0-3.406 2.761-6.167 6.167-6.167h127.484c3.406 0 6.167 2.761 6.167 6.167l0 0C787 409.594 784.239 412.355 780.833 412.355zM783.917 394.331H650.266c-1.703 0-3.083-1.38-3.083-3.083l0 0c0-1.703 1.38-3.083 3.083-3.083h133.651c1.703 0 3.083 1.38 3.083 3.083l0 0C787 392.951 785.62 394.331 783.917 394.331z" opacity=".05"/><path fill="#026060" d="M788.265,351.188h-1.054c1.309,2.606,2.063,5.538,2.063,8.653v46.113
	c0,8.042-6.519,14.561-14.561,14.561H651.34c-5.895,0-10.673,4.779-10.673,10.674l0,0h147.598c10.674,0,19.326-8.653,19.326-19.326
	v-41.347C807.591,359.841,798.939,351.188,788.265,351.188z" opacity=".14"/><path fill="#92d3d1" d="M795.606,364.024h-157.03c-2.868,0-5.194-2.325-5.194-5.194l0,0
	c0-2.868,2.325-5.194,5.194-5.194h157.03c2.868,0,5.194,2.325,5.194,5.194l0,0C800.8,361.699,798.474,364.024,795.606,364.024z" opacity=".15"/><path fill="none" stroke="#3f2522" stroke-linecap="round" stroke-linejoin="round" stroke-miterlimit="10" stroke-width="6" d="
	M788.265,431.188H645.918c-10.674,0-19.326-8.653-19.326-19.326v-41.347c0-10.674,8.653-19.326,19.326-19.326h142.347
	c10.674,0,19.326,8.653,19.326,19.326v41.347C807.591,422.535,798.939,431.188,788.265,431.188z"/><path fill="#ab5647" d="M715.163,630.308L715.163,630.308c-11.745,0-21.265-9.521-21.265-21.265v-68.4
	c0-11.745,9.521-21.265,21.265-21.265h0c11.745,0,21.265,9.521,21.265,21.265v68.4C736.428,620.787,726.907,630.308,715.163,630.308
	z"/><path fill="#ffbba6" d="M700.843,617.5L700.843,617.5c-2.978,0-5.392-2.414-5.392-5.392v-76.715
	c0-2.978,2.414-5.392,5.392-5.392l0,0c2.978,0,5.392,2.414,5.392,5.392v76.715C706.236,615.086,703.822,617.5,700.843,617.5z" opacity=".21"/><path fill="#9b4f45" d="M720.551,520.093c3.046,3.679,4.877,8.4,4.877,13.55v68.4
	c0,11.745-9.521,21.265-21.265,21.265h0c-1.865,0-3.665-0.265-5.388-0.716c3.901,4.712,9.793,7.716,16.388,7.716h0
	c11.745,0,21.265-9.521,21.265-21.265v-68.4C736.428,530.763,729.681,522.482,720.551,520.093z"/><path fill="none" stroke="#3f2522" stroke-linecap="round" stroke-linejoin="round" stroke-miterlimit="10" stroke-width="6" d="
	M715.163,630.308L715.163,630.308c-11.745,0-21.265-9.521-21.265-21.265v-68.4c0-11.745,9.521-21.265,21.265-21.265h0
	c11.745,0,21.265,9.521,21.265,21.265v68.4C736.428,620.787,726.907,630.308,715.163,630.308z"/><path fill="#9b4f45" d="M727.314,524.377h-24.303c-5.033,0-9.114-4.08-9.114-9.114l0,0
	c0-5.033,4.08-9.114,9.114-9.114h24.303c5.033,0,9.114,4.08,9.114,9.114l0,0C736.428,520.297,732.348,524.377,727.314,524.377z"/><ellipse cx="700.067" cy="515.25" fill="#ffbba6" opacity=".21" rx="6.169" ry="6.25"/><path fill="#8c443e" d="M727.314,506.15h-14.319c5.033,0,9.114,4.08,9.114,9.114v0
	c0,5.033-4.08,9.114-9.114,9.114h14.319c5.033,0,9.114-4.08,9.114-9.114v0C736.428,510.23,732.348,506.15,727.314,506.15z"/><path fill="none" stroke="#3f2522" stroke-linecap="round" stroke-linejoin="round" stroke-miterlimit="10" stroke-width="6" d="M727.314 524.377h-24.303c-5.033 0-9.114-4.08-9.114-9.114l0 0c0-5.033 4.08-9.114 9.114-9.114h24.303c5.033 0 9.114 4.08 9.114 9.114l0 0C736.428 520.297 732.348 524.377 727.314 524.377zM626.591 406.188h-1.186c-3.763 0-6.814-3.051-6.814-6.814v-16.372c0-3.763 3.051-6.814 6.814-6.814h1.186V406.188z"/><path fill="#3f2522" d="M626.591,406.188h-1.186c-3.763,0-6.814-3.051-6.814-6.814v-16.372
	c0-3.763,3.051-6.814,6.814-6.814h1.186V406.188z"/><path fill="none" stroke="#3f2522" stroke-linecap="round" stroke-linejoin="round" stroke-miterlimit="10" stroke-width="6" d="
	M807.591,406.188h1.186c3.763,0,6.814-3.051,6.814-6.814v-16.372c0-3.763-3.051-6.814-6.814-6.814h-1.186V406.188z"/><path fill="#3f2522" d="M807.591,406.188h1.186c3.763,0,6.814-3.051,6.814-6.814v-16.372
	c0-3.763-3.051-6.814-6.814-6.814h-1.186V406.188z"/><path fill="none" stroke="#ec2731" stroke-linecap="round" stroke-linejoin="round" stroke-miterlimit="10" stroke-width="6" d="
	M319.934,322.544c-1.976-2.505-3.984-4.782-5.647-7.052c-4.963-6.768-10.085-17.547-10.599-35.176
	c-0.099-3.376-3.548-5.599-6.664-4.295c-7.514,3.144-17.953,8.922-27.284,19.399c-7.655,8.596-12.172,17.669-14.86,25.43
	c-0.005,0.015,0.001,0.031,0.016,0.038"/><path fill="#ec2731" d="M319.92,334.148c0.006-0.165,0.021-0.328,0.021-0.495
	c0.023-0.248,0.07-0.492,0.099-0.738c0.061-0.527,0.129-1.051,0.212-1.571c0.032-0.189,0.066-0.378,0.101-0.567
	c0.479-2.732,1.247-5.363,2.285-7.856c-1.766-0.296-3.368-1.221-4.508-2.609c-1.363-1.66-2.687-3.242-3.844-4.82
	c-4.968-6.775-10.095-17.569-10.6-35.228c-0.096-3.351-3.521-5.555-6.615-4.263c-7.517,3.139-17.981,8.919-27.332,19.419
	c-7.664,8.605-13.218,20.495-15.904,28.261c0.447,0.13,5.949,3.443,5.949,8.88v15.129c0,6.848,5.357,12.722,12.203,12.847
	c6.975,0.128,12.67-5.488,12.67-12.434v-26.045c0-3.799,2.927-7.112,6.725-7.226c3.929-0.118,7.151,3.032,7.151,6.935v11.885
	c0,6.869,4.792,12.437,10.704,12.437c5.41,0,9.871-4.668,10.591-10.725C319.848,334.957,319.886,334.553,319.92,334.148z"/><line x1="408" x2="408" y1="578.75" y2="594.652" fill="none" stroke="#fff" stroke-linecap="round" stroke-linejoin="round" stroke-miterlimit="10" stroke-width="6" opacity=".4"/><line x1="408" x2="408" y1="462.355" y2="565.194" fill="none" stroke="#fff" stroke-linecap="round" stroke-linejoin="round" stroke-miterlimit="10" stroke-width="6" opacity=".4"/><path fill="none" stroke="#fff" stroke-linecap="round" stroke-linejoin="round" stroke-miterlimit="10" stroke-width="6" d="
	M285.445,607.195" opacity=".4"/><path fill="#cc253d" d="M717.695,177.758L717.695,177.758l-10.78-15.962
	c-5.677-8.407-0.358-20.17,9.763-20.854c0.336-0.023,0.675-0.034,1.017-0.034l0,0c0.342,0,0.681,0.012,1.017,0.034
	c10.121,0.684,15.44,12.447,9.763,20.854L717.695,177.758z"/><path fill="#38beb3" d="M717.695,184.758L717.695,184.758l-10.78-15.962
	c-5.677-8.407-0.358-20.17,9.763-20.854c0.336-0.023,0.675-0.034,1.017-0.034l0,0c0.342,0,0.681,0.012,1.017,0.034
	c10.121,0.684,15.44,12.447,9.763,20.854L717.695,184.758z"/><path fill="none" stroke="#3f2522" stroke-linecap="round" stroke-linejoin="round" stroke-miterlimit="10" stroke-width="6" d="
	M717.695,184.758L717.695,184.758l-10.78-15.962c-5.677-8.407-0.358-20.17,9.763-20.854c0.336-0.023,0.675-0.034,1.017-0.034l0,0
	c0.342,0,0.681,0.012,1.017,0.034c10.121,0.684,15.44,12.447,9.763,20.854L717.695,184.758z"/><path fill="none" stroke="#fff" stroke-linecap="round" stroke-linejoin="round" stroke-miterlimit="10" stroke-width="6" d="M652.667 416.012" opacity=".4"/><line x1="652.667" x2="736.428" y1="371" y2="371" fill="none" stroke="#fff" stroke-linecap="round" stroke-linejoin="round" stroke-miterlimit="10" stroke-width="6" opacity=".4"/><line x1="753.5" x2="765.5" y1="371" y2="371" fill="none" stroke="#fff" stroke-linecap="round" stroke-linejoin="round" stroke-miterlimit="10" stroke-width="6" opacity=".4"/><circle cx="715.189" cy="606.437" r="6.689" fill="#3e454f"/><circle cx="715.189" cy="606.437" r="6.689" fill="none" stroke="#3f2522" stroke-linecap="round" stroke-linejoin="round" stroke-miterlimit="10" stroke-width="6"/></svg>