<svg xmlns="http://www.w3.org/2000/svg" data-name="Layer 1" viewBox="0 0 512 512"><g data-name="&lt;Group&gt;"><g data-name="&lt;Group&gt;"><path fill="#fdc75b" d="M358.87,260.11h-.64v8.07c0,10.24-8.08,18.94-18.32,19.05h-.21a18.524,18.524,0,0,1-18.54-18.53V165.41a34.9,34.9,0,0,1,34.74-38.44h18.78l29.77,28.96,30.86-28.96H453a34.429,34.429,0,0,1,3.52.18,34.906,34.906,0,0,1,31.21,38.26V268.69a18.55,18.55,0,0,1-37.1,0V246.1l-.42,14.01Z" data-name="&lt;Group&gt;"/><path fill="#ed664c" d="M404.54,444.29a20.1,20.1,0,0,1-40.18.73l-5.49-184.91h91.34l-5.5,184.91a20.091,20.091,0,0,1-40.17-.73Z" data-name="&lt;Group&gt;"/><path fill="#fdc75b" d="M436.88 65.21V78.65a33.605 33.605 0 1 1-67.21 0V65.21a33.605 33.605 0 0 1 67.21 0zM221.65 387.04l-9.73-9.25 22-20.9a17.771 17.771 0 0 1 24.47 0l52.2 49.61a17.77 17.77 0 0 1 0 25.76l-20.68 19.63-16.7-15.86z" data-name="&lt;Group&gt;"/><path fill="#ed664c" d="M221.65,387.04l51.56,48.99-.54.57-26.3,29c-20.76,19.72-54.42,19.72-75.17,0L39.65,340.6a48.763,48.763,0,0,1,0-71.43l29.92-26.65,50.61,48.08-16.63,17.85a14.622,14.622,0,0,0,0,21.43l78.92,75a16.536,16.536,0,0,0,22.55,0Z" data-name="&lt;Group&gt;"/><path fill="#fdc75b" d="M120.18,290.6,69.57,242.52l-15.5-14.73,21.99-20.9a17.751,17.751,0,0,1,24.47,0l52.2,49.61a17.758,17.758,0,0,1,0,25.75l-20.67,19.64Z" data-name="&lt;Group&gt;"/></g><g data-name="&lt;Group&gt;"><path d="M208.781 488.333a62.446 62.446 0 0 0 43.1-16.933c.143-.136.283-.278.416-.426l21.33-23.52L284.4 457.691a8 8 0 0 0 11.017 0L316.1 438.057a25.772 25.772 0 0 0 0-37.356l-52.2-49.614a25.754 25.754 0 0 0-35.486 0l-22 20.9a8 8 0 0 0 0 11.6l3.988 3.791-11.036 11.84a8.576 8.576 0 0 1-11.38-.138l-78.919-75a6.626 6.626 0 0 1 0-9.831q.177-.168.342-.347l11.121-11.938 6.025 5.724a8 8 0 0 0 11.021 0l20.67-19.64a25.757 25.757 0 0 0 0-37.349l-52.2-49.606a25.738 25.738 0 0 0-35.5 0l-21.989 20.9a8 8 0 0 0 0 11.6l9.2 8.739L34.329 263.2c-.064.057-.127.116-.189.175a56.761 56.761 0 0 0 0 83.028l131.549 125A62.412 62.412 0 0 0 208.781 488.333zm30.651-125.644a9.76 9.76 0 0 1 13.447 0l52.2 49.608a9.77 9.77 0 0 1 .006 14.161l-15.171 14.4-62.75-59.617h0l-3.629-3.45zm-157.862-150a9.751 9.751 0 0 1 13.45 0l52.2 49.611a9.758 9.758 0 0 1 0 14.15l-15.159 14.4L75.08 236.72l-9.4-8.93zM32.088 304.876a41.008 41.008 0 0 1 12.983-29.821L69.4 253.389l39.529 37.556L97.846 302.837a22.618 22.618 0 0 0 .193 32.842l78.92 75a24.646 24.646 0 0 0 33.576 0c.115-.11.228-.223.336-.34L222 398.4l40.028 38.029L240.652 460c-17.7 16.608-46.327 16.545-63.941-.195L45.163 334.8A41.041 41.041 0 0 1 32.088 304.876zM362 65.21V78.65a41.5 41.5 0 1 0 83 0V65.21a41.5 41.5 0 1 0-83 0zm67 0V78.65a25.69 25.69 0 0 1-25.67 25.61A25.366 25.366 0 0 1 378 78.65V65.21a25.5 25.5 0 1 1 51 0z" data-name="&lt;Compound Path&gt;"/><path d="M486.382,134.754A42.739,42.739,0,0,0,457.4,119.207,43.943,43.943,0,0,0,453,119H435.31a7.984,7.984,0,0,0-5.475,2.152l-25.286,23.721-24.291-23.619A7.992,7.992,0,0,0,374.68,119H355.9a43.019,43.019,0,0,0-43,42.9c0,1.308.1,2.609.1,3.9V268.7A26.465,26.465,0,0,0,339.673,295H340a25.2,25.2,0,0,0,11.821-2.895l4.549,153.153A28.079,28.079,0,0,0,404.529,463.9c.079.082.154.169.234.25a28.089,28.089,0,0,0,47.943-18.9L457.255,292.4A26.751,26.751,0,0,0,496,268.69V165.8A42.874,42.874,0,0,0,486.382,134.754ZM424.63,456.39a11.488,11.488,0,0,1-8.315-3.539A11.836,11.836,0,0,1,413,444.29V292.48a8,8,0,0,0-16,0V444.29a12.3,12.3,0,0,1-24.586.438L367.107,268h74.865l-5.257,176.677A12.1,12.1,0,0,1,424.63,456.39ZM479.906,164.6c-.027.268.094.538.094.808V268.69a10.5,10.5,0,1,1-21,0V246.215l.106-3.577c.016-.529-.106-1.047-.106-1.551V199.56a8,8,0,1,0-16,0V246l-.552,6H366.632l-.411-9.894c-.011-.351-.221-.639-.221-.976V199.56a8,8,0,1,0-16,0v68.62c0,6.032-4.438,10.82-10.09,10.82h-.228a10.525,10.525,0,0,1-7.514-2.962A10.28,10.28,0,0,1,329,268.7V165.41a7.991,7.991,0,0,0,.038-.817,26.257,26.257,0,0,1-.1-2.7A26.968,26.968,0,0,1,355.9,135h15.531l27.441,26.679c.052.051.107.085.16.134.108.1.216.192.327.284s.2.156.3.232.226.165.341.242.217.141.328.208.226.133.341.195.24.124.361.182.224.1.337.15c.129.054.259.1.391.151.11.039.221.077.333.111.136.042.272.08.41.114.111.028.223.054.335.077.14.029.279.053.42.074.113.018.226.033.34.045.14.015.28.026.421.033.116.006.231.011.348.012.138,0,.276,0,.413-.007.12,0,.239-.012.358-.022.135-.011.268-.026.4-.045s.242-.035.362-.057.262-.052.391-.083.242-.059.362-.093.255-.077.381-.12.236-.083.353-.129.25-.1.373-.159.226-.1.338-.162.243-.13.363-.2.214-.127.319-.194.235-.157.35-.241.2-.15.3-.23.216-.179.322-.273c.057-.049.116-.078.171-.129L438.476,135H453a26.533,26.533,0,0,1,2.715.124A27,27,0,0,1,479.906,164.6Z" data-name="&lt;Compound Path&gt;"/></g></g></svg>